<svg width="440" height="536" viewBox="0 0 440 536" fill="none" xmlns="http://www.w3.org/2000/svg">
<g clip-path="url(#clip0_3312_12236)">
<path d="M424.212 296.429C419.559 335.761 401.603 381.503 365.723 402.557C311.523 434.321 316.058 483.161 210.283 504.397C194.853 507.567 179.124 509.055 163.373 508.835C155.665 508.697 147.974 508.067 140.346 506.949C73.1103 497.129 27.8504 450.39 11.2559 393.971C-10.5915 319.767 33.0282 271.194 61.94 241.918C90.8519 212.642 112.013 121.404 215.858 99.6958C231.708 96.3188 247.895 94.7828 264.098 95.1184C301.039 96.0296 341.335 108.154 369.229 133.485C371.316 135.386 373.352 137.355 375.339 139.392C414.081 179.185 430.547 242.797 424.212 296.429Z" fill="#91B3FA"/>
<path opacity="0.7" d="M424.212 296.429C419.559 335.761 401.603 381.503 365.723 402.557C311.523 434.321 316.058 483.161 210.283 504.397C194.853 507.567 179.124 509.055 163.373 508.835C155.665 508.697 147.974 508.067 140.346 506.949C73.1103 497.129 27.8504 450.39 11.2559 393.971C-10.5915 319.767 33.0282 271.194 61.94 241.918C90.8519 212.642 112.013 121.404 215.858 99.6958C231.708 96.3188 247.895 94.7828 264.098 95.1184C301.039 96.0296 341.335 108.154 369.229 133.485C371.316 135.386 373.352 137.355 375.339 139.392C414.081 179.185 430.547 242.797 424.212 296.429Z" fill="white"/>
<g opacity="0.15">
<path d="M285.28 105.056C280.199 108.583 266.542 110.952 266.531 110.952C266.52 110.952 267.699 101.475 267.849 100.886C269.607 94.0571 277.004 81.8899 284.894 81.4075C290.565 81.0645 294.735 85.9957 294.542 91.4522C294.349 96.9086 289.611 102.022 285.28 105.056Z" fill="black"/>
<path d="M247.664 276.908C247.664 277.229 247.664 277.53 247.664 277.851L242.947 280.864C242.947 279.577 242.947 278.28 242.947 276.929C242.947 273.134 243.022 269.072 243.129 264.901C239.216 264.17 235.35 263.208 231.552 262.018C228.432 267.088 219.267 274.121 218.077 275.021C220.124 278.151 222.161 281.164 224.112 283.994C225.463 285.934 226.771 287.789 228.036 289.579L222.901 290.587C222.022 289.3 221.143 287.982 220.242 286.609C218.098 283.447 215.954 280.017 213.756 276.479C212.363 277.069 200.892 281.839 195.104 281.678C189.84 281.539 183.172 279.888 179.935 275.353C176.697 270.819 177.555 264.505 182.497 261.685C189.358 257.762 202.211 263.894 207.41 268.653C207.721 268.932 210.712 272.352 212.567 274.539C211.677 273.092 210.787 271.687 209.887 270.186C208.086 267.217 206.381 264.205 204.527 260.978L201.975 256.154C201.096 254.557 200.367 252.766 199.542 251.051C197.709 247.053 196.058 242.915 194.482 238.712C191.888 240.288 182.572 245.734 177.33 246.388C172.088 247.042 165.27 246.388 161.379 242.432C157.487 238.477 157.38 232.066 161.84 228.496C168.025 223.587 181.661 227.703 187.568 231.616C187.943 231.852 191.856 235.143 193.935 236.976C193.003 234.435 192.07 231.905 191.212 229.311C188.747 221.807 186.485 214.153 184.191 206.52C183.476 204.183 182.761 201.854 182.047 199.531C181.136 200.099 170.255 206.821 164.327 207.549C159.095 208.214 152.256 207.549 148.375 203.594C144.495 199.638 144.377 193.228 148.836 189.658C155.022 184.748 168.657 188.865 174.564 192.777C175.004 193.077 180.6 197.805 181.961 199.081C180.374 193.946 178.745 188.854 176.944 183.901C174.5 177.229 171.625 170.722 168.336 164.423C167.907 164.68 156.544 171.745 150.519 172.495C145.288 173.149 138.448 172.495 134.557 168.539C130.666 164.584 130.559 158.173 135.018 154.603C141.204 149.694 154.839 153.81 160.746 157.723C161.196 158.034 167.178 163.083 168.25 164.155C168.068 163.79 167.907 163.394 167.714 163.083C164.269 156.821 160.276 150.877 155.783 145.32C153.349 142.211 150.841 139.392 148.279 136.744C146.296 138.277 137.162 145.181 131.813 146.456C126.689 147.678 119.817 147.818 115.518 144.312C111.22 140.807 110.405 134.45 114.446 130.451C120.064 124.888 134.064 127.482 140.324 130.73C140.668 130.901 143.926 133.078 146.285 134.696C145.138 133.496 143.969 132.241 142.854 131.116C138.641 126.828 134.536 123.247 130.869 120.064C128.725 118.273 126.839 116.697 125.006 115.24C122.283 115.722 111.252 117.555 106.01 116.247C100.768 114.939 94.743 111.959 92.5562 106.803C90.3693 101.647 92.5562 95.697 98.0019 94.0032C105.506 91.6556 116.773 100.435 120.836 106.17C121.189 106.674 125.777 115.089 125.638 115.122H125.477C127.257 116.483 129.154 117.973 131.202 119.645C134.943 122.754 139.145 126.292 143.455 130.462C148.152 134.899 152.584 139.61 156.726 144.569C161.404 150.091 165.577 156.021 169.193 162.29L169.311 162.525C168.818 160.264 167.671 153.896 167.639 153.392C167.178 146.36 170.416 132.488 177.759 129.572C183.044 127.428 188.543 130.859 190.033 136.111C191.523 141.364 188.704 147.593 185.488 151.795C181.907 156.544 170.587 162.676 169.687 163.169C173.21 169.634 176.297 176.327 178.927 183.204C180.482 187.203 181.929 191.287 183.322 195.393C182.969 193.421 182.658 191.652 182.647 191.405C182.186 184.373 185.424 170.501 192.767 167.585C198.052 165.441 203.551 168.872 205.041 174.125C206.531 179.377 203.712 185.724 200.496 189.926C197.28 194.128 187.728 199.574 185.177 201.021C185.702 202.608 186.249 204.173 186.753 205.759C189.208 213.349 191.63 220.939 194.257 228.271C195.168 230.865 196.165 233.385 197.162 235.915C196.84 234.167 196.594 232.699 196.572 232.463C196.111 225.43 199.349 211.559 206.692 208.643C211.977 206.553 217.476 209.929 218.966 215.182C220.456 220.435 217.648 226.824 214.432 231.026C211.216 235.229 202.64 240.192 199.574 241.864C200.646 244.426 201.718 246.988 202.929 249.368C203.765 251.008 204.462 252.648 205.395 254.257C206.328 255.865 207.174 257.473 208.043 259.027C209.844 261.996 211.677 265.073 213.499 267.924C214.753 269.918 215.986 271.794 217.219 273.692C216.276 271.108 214.528 266.038 214.432 265.588C213.328 259.496 213.796 253.223 215.793 247.364C215.64 246.687 215.55 245.998 215.525 245.305C215.332 239.86 219.524 234.95 225.173 235.325C233.052 235.84 240.385 248.05 242.1 254.889C242.207 255.286 242.818 259.788 243.172 262.629C243.236 260.935 243.269 259.273 243.344 257.526C243.483 254.064 243.708 250.601 243.944 246.881C244.126 245.091 244.308 243.279 244.491 241.457C244.673 239.634 245.016 237.737 245.263 235.861C245.949 231.573 246.849 227.156 247.857 222.772C244.823 222.654 234.049 222.064 229.311 219.717C224.573 217.369 219.224 213.081 218.184 207.614C217.144 202.147 220.574 196.754 226.235 196.272C234.103 195.586 243.215 206.542 245.949 213.038C246.12 213.445 247.557 218.334 248.296 221.024C248.918 218.398 249.529 215.772 250.247 213.145C252.327 205.523 254.664 197.891 256.958 190.258C257.666 187.921 258.341 185.584 259.027 183.237C257.955 183.237 245.091 182.786 239.817 180.149C235.1 177.812 229.729 173.524 228.689 168.046C227.65 162.568 231.08 157.198 236.751 156.705C244.609 156.029 253.721 166.974 256.454 173.481C256.658 173.964 258.716 180.985 259.156 182.818C260.656 177.662 262.114 172.517 263.336 167.392C265.03 160.473 266.269 153.451 267.046 146.37C266.542 146.37 253.11 145.974 247.75 143.272C243.022 140.935 237.662 136.647 236.622 131.169C235.582 125.692 239.002 120.321 244.673 119.828C252.541 119.152 261.643 130.097 264.376 136.605C264.601 137.108 266.81 144.677 267.11 146.081C267.11 145.674 267.239 145.245 267.281 144.837C267.869 137.701 267.819 130.525 267.131 123.397C266.81 119.463 266.274 115.722 265.673 112.099C263.176 112.281 251.737 112.999 246.581 111.112C241.628 109.311 235.861 105.634 234.2 100.307C232.538 94.9787 235.379 89.2543 240.953 88.1501C248.704 86.6064 258.952 96.4903 262.393 102.654C262.575 102.987 264.098 106.599 265.17 109.258C264.869 107.618 264.601 105.924 264.291 104.369C263.122 98.5163 261.696 93.2207 260.388 88.5467C259.627 85.8882 258.888 83.5084 258.169 81.2786C255.618 80.2066 245.413 75.6291 241.768 71.6306C238.123 67.632 234.746 61.8111 235.754 56.3224C236.762 50.8338 241.875 47.1675 247.342 48.7327C254.932 50.941 259.467 64.4375 259.681 71.4912C259.681 72.0916 258.877 81.6538 258.748 81.6002L258.588 81.5359C259.327 83.6799 260.088 85.9418 260.871 88.461C262.275 93.1135 263.819 98.3877 265.159 104.252C266.63 110.542 267.732 116.914 268.461 123.333C269.306 130.523 269.51 137.773 269.072 144.998V145.256C269.919 143.112 272.47 137.151 272.716 136.68C276.211 130.558 286.567 120.782 294.296 122.401C299.86 123.569 302.582 129.422 300.932 134.632C299.281 139.842 293.428 143.551 288.432 145.352C282.825 147.325 269.994 146.199 268.975 146.102C268.348 153.444 267.231 160.736 265.631 167.928C264.719 172.12 263.68 176.322 262.575 180.514C263.369 178.67 264.087 177.03 264.205 176.815C267.7 170.694 278.055 160.907 285.784 162.536C291.359 163.705 294.071 169.558 292.42 174.757C290.769 179.956 284.916 183.687 279.92 185.477C274.925 187.267 263.926 186.549 261.021 186.281C260.592 187.889 260.163 189.497 259.724 191.094C257.58 198.791 255.436 206.456 253.528 214.046C252.863 216.715 252.306 219.406 251.737 222.021C252.434 220.392 253.035 219.02 253.152 218.805C256.647 212.684 267.003 202.908 274.732 204.526C280.296 205.695 283.018 211.548 281.368 216.758C279.717 221.968 273.864 225.677 268.868 227.478C263.872 229.279 253.935 228.55 250.494 228.314C249.99 231.058 249.486 233.803 249.122 236.472C248.918 238.305 248.586 240.053 248.489 241.907C248.393 243.762 248.2 245.552 248.06 247.342C247.921 250.815 247.75 254.385 247.696 257.773C247.696 260.131 247.632 262.372 247.621 264.633C248.253 261.964 249.604 256.765 249.765 256.347C252.295 249.765 261.053 238.53 268.932 238.959C274.614 239.27 278.184 244.651 277.337 250.044C276.49 255.436 271.248 260.002 266.617 262.489C261.503 265.223 249.154 266.081 247.61 266.177C247.514 269.833 247.535 273.477 247.664 276.908Z" fill="black"/>
<path d="M148.311 135.136C148.204 135.232 144.023 126.56 143.851 126.002C141.547 119.345 141.011 105.109 147.325 100.36C151.87 96.9403 158.045 98.752 160.896 103.426C163.748 108.1 162.644 114.971 160.693 119.87C158.399 125.606 148.322 135.125 148.311 135.136Z" fill="black"/>
</g>
<g opacity="0.15">
<path d="M77.1412 303.665C76.2622 306.731 71.5883 312.144 71.5883 312.155C71.5883 312.166 68.9619 307.985 68.8225 307.706C67.2896 304.404 66.2712 297.136 69.2513 294.36C69.7621 293.915 70.3605 293.583 71.0078 293.385C71.6551 293.187 72.3368 293.126 73.0089 293.208C73.6809 293.29 74.3282 293.512 74.909 293.86C75.4897 294.208 75.9909 294.674 76.3801 295.228C78.106 297.522 77.8809 301.049 77.1412 303.665Z" fill="black"/>
<path d="M118.306 384.536L118.617 384.9L117.738 387.645L116.451 386.079C115.208 384.568 113.911 382.928 112.592 381.223C110.79 382.21 108.933 383.09 107.028 383.86C107.446 386.905 106.085 392.704 105.903 393.444C107.747 394.023 109.537 394.57 111.263 395.052C112.442 395.395 113.568 395.706 114.661 395.995L112.935 398.139L110.577 397.421C108.701 396.842 106.717 396.188 104.681 395.492C104.316 396.188 101.304 401.838 98.9455 403.671C96.8015 405.333 93.5855 406.887 90.8197 406.104C90.1616 405.949 89.5435 405.656 89.0057 405.246C88.4678 404.836 88.0222 404.318 87.6977 403.724C87.3732 403.131 87.1771 402.476 87.1221 401.802C87.0672 401.128 87.1545 400.45 87.3786 399.812C88.8258 396.006 95.9546 394.248 99.5887 394.452C99.8031 394.452 102.119 394.848 103.566 395.116C102.74 394.827 101.926 394.559 101.079 394.248C99.3957 393.658 97.7234 393.015 95.9332 392.329L93.3389 391.257C92.4599 390.914 91.5809 390.442 90.7018 390.024C88.665 389.027 86.6496 387.88 84.645 386.755C84.1197 388.234 82.1901 393.444 80.357 395.427C78.5239 397.41 75.5545 399.383 72.7029 399.061C72.0287 399.008 71.3732 398.814 70.779 398.491C70.1848 398.168 69.6651 397.724 69.2536 397.187C68.8422 396.65 68.5483 396.033 68.3908 395.375C68.2334 394.717 68.2161 394.034 68.3399 393.369C69.1975 389.392 75.9832 386.573 79.6066 386.219C79.8317 386.219 82.4581 386.219 83.8946 386.272C82.694 385.565 81.4933 384.868 80.3034 384.128C76.873 381.984 73.4641 379.637 70.0551 377.343C68.9831 376.635 67.9111 375.949 66.9141 375.199C66.7319 375.724 64.5665 381.974 62.4653 384.193C60.6001 386.165 57.6628 388.148 54.8113 387.827C54.137 387.774 53.4815 387.579 52.8873 387.256C52.2931 386.933 51.7734 386.489 51.362 385.952C50.9505 385.416 50.6566 384.798 50.4992 384.141C50.3417 383.483 50.3244 382.799 50.4482 382.134C51.3058 378.157 58.0916 375.338 61.7149 374.984C61.9829 374.984 65.7671 374.984 66.7212 375.07C64.4164 373.548 62.1009 372.047 59.7639 370.664C56.6117 368.772 53.3386 367.089 49.9658 365.626C49.8908 365.872 47.661 372.411 45.5063 374.673C43.6303 376.646 40.7037 378.64 37.8415 378.318C37.1671 378.264 36.5117 378.068 35.9179 377.744C35.3241 377.42 34.8051 376.974 34.3946 376.436C33.9842 375.899 33.6915 375.28 33.5355 374.622C33.3795 373.964 33.3637 373.28 33.4892 372.615C34.3468 368.638 41.1325 365.819 44.7452 365.465C45.0346 365.465 49.0975 365.465 49.8372 365.561C49.6442 365.486 49.4405 365.379 49.2476 365.293C45.8325 363.904 42.2982 362.827 38.6884 362.077C36.6945 361.638 34.7756 361.327 32.8996 361.07C32.6101 362.324 31.2165 368.07 29.5013 370.321C27.7861 372.572 25.1597 374.791 22.2868 374.781C21.6112 374.802 20.9386 374.681 20.3129 374.425C19.6872 374.17 19.1224 373.785 18.6551 373.297C18.1879 372.808 17.8288 372.227 17.6012 371.59C17.3736 370.954 17.2826 370.277 17.3341 369.603C17.7522 365.551 24.1842 362.002 27.7433 361.252C27.9362 361.252 29.9516 361.016 31.4202 360.887C30.5626 360.791 29.6943 360.662 28.8796 360.577C25.8137 360.266 22.9836 360.158 20.4858 360.094C19.0601 360.094 17.7737 360.094 16.573 360.094C15.6404 361.166 11.8348 365.508 9.32629 366.698C6.81781 367.888 3.41957 368.659 0.868213 367.33C0.257543 367.039 -0.284777 366.621 -0.72336 366.106C-1.16194 365.591 -1.48693 364.989 -1.67711 364.339C-1.86729 363.69 -1.91839 363.008 -1.82707 362.337C-1.73575 361.667 -1.50407 361.023 -1.14714 360.448C1.09334 357.05 8.43654 356.867 11.942 357.843C12.2421 357.918 16.8303 359.783 16.7874 359.837L16.7231 359.901C17.8809 359.901 19.1244 359.837 20.4858 359.837C22.9943 359.837 25.8458 359.89 28.9117 360.148C32.2355 360.386 35.5427 360.815 38.817 361.434C42.4712 362.115 46.0583 363.116 49.537 364.425L49.6657 364.479C48.733 363.739 46.1924 361.574 46.0101 361.391C43.5231 358.733 40.2857 352.14 42.2581 348.527C42.6044 347.946 43.069 347.443 43.6218 347.052C44.1746 346.661 44.8034 346.391 45.4673 346.259C46.1312 346.126 46.8156 346.135 47.476 346.284C48.1365 346.433 48.7583 346.718 49.3012 347.123C51.6596 348.763 52.5172 352.194 52.6565 354.906C52.7745 357.972 50.266 364.114 50.0623 364.554C53.5844 365.976 57.0049 367.638 60.2999 369.528C62.2295 370.6 64.1377 371.768 66.0351 372.947C65.2525 372.283 64.5557 371.672 64.47 371.575C61.9829 368.927 58.7348 362.335 60.718 358.776C61.062 358.193 61.525 357.689 62.0768 357.297C62.6286 356.906 63.2568 356.635 63.9204 356.502C64.584 356.37 65.2681 356.379 65.928 356.528C66.5879 356.678 67.2089 356.965 67.7503 357.371C70.1087 359.011 70.9663 362.442 71.1057 365.154C71.245 367.866 69.1868 373.194 68.6293 374.588L70.7733 375.96C74.2359 378.179 77.6877 380.419 81.1396 382.51C82.3509 383.239 83.573 383.925 84.7951 384.654C84.0983 384.053 83.5194 383.582 83.4337 383.464C80.9466 380.805 77.7092 374.212 79.6817 370.653C80.0268 370.072 80.4904 369.57 81.0423 369.179C81.5941 368.788 82.222 368.518 82.8851 368.385C83.5482 368.253 84.2317 368.261 84.8914 368.41C85.551 368.559 86.172 368.845 86.714 369.249C89.0724 370.889 89.93 374.32 90.0801 377.032C90.2301 379.744 88.3434 384.536 87.6895 386.219C88.9652 386.883 90.2409 387.548 91.4951 388.138C92.3741 388.513 93.1781 388.942 94.0786 389.274L96.6943 390.346C98.3773 390.946 100.114 391.568 101.776 392.115C102.933 392.501 104.037 392.844 105.142 393.187C103.93 392.469 101.572 391.043 101.39 390.861C98.9486 388.792 97.0806 386.13 95.9653 383.131C95.6794 382.917 95.4171 382.672 95.1828 382.402C94.7177 381.911 94.3617 381.327 94.138 380.689C93.9143 380.051 93.828 379.372 93.8847 378.698C93.9413 378.024 94.1397 377.37 94.4669 376.778C94.7941 376.186 95.2426 375.67 95.7831 375.263C99.0849 372.894 106.01 375.359 108.926 377.525C109.097 377.654 110.813 379.251 111.885 380.269C111.349 379.572 110.813 378.908 110.277 378.179C109.205 376.753 108.133 375.295 107.061 373.741L105.506 371.393C104.97 370.632 104.498 369.742 103.984 368.917C102.837 366.955 101.765 364.918 100.768 362.849C99.5244 363.793 95.0327 367.073 92.3741 367.684C89.7156 368.295 86.1887 368.338 83.9804 366.494C83.4471 366.078 83.0073 365.555 82.6898 364.958C82.3723 364.361 82.1842 363.704 82.1376 363.029C82.0911 362.354 82.1872 361.678 82.4198 361.043C82.6523 360.408 83.0161 359.829 83.4873 359.344C86.4031 356.492 93.6069 357.886 96.8229 359.59C97.0266 359.698 99.2028 361.177 100.371 362.002C99.7709 360.759 99.1492 359.505 98.581 358.218C96.9194 354.509 95.365 350.714 93.7677 346.898C93.2853 345.74 92.7922 344.582 92.2991 343.425C91.8596 343.768 86.6068 347.788 83.6373 348.474C80.9895 349.085 77.4412 349.128 75.2436 347.284C74.7107 346.867 74.2712 346.343 73.9536 345.745C73.636 345.148 73.4474 344.49 73.3999 343.815C73.3524 343.14 73.4471 342.463 73.6779 341.827C73.9087 341.191 74.2705 340.61 74.7397 340.123C77.6556 337.282 84.8701 338.676 88.0861 340.369C88.3327 340.498 91.4522 342.631 92.2133 343.21C91.1413 340.67 90.0693 338.14 88.8365 335.706C87.2603 332.395 85.4698 329.19 83.4765 326.112C83.2621 326.273 77.8056 330.486 74.7505 331.193C72.1026 331.804 68.565 331.847 66.3567 330.003C65.8231 329.586 65.3832 329.062 65.0656 328.464C64.748 327.866 64.5598 327.208 64.5133 326.533C64.4668 325.857 64.563 325.18 64.7956 324.544C65.0283 323.908 65.3921 323.328 65.8636 322.842C68.7794 320.001 75.994 321.395 79.21 323.089C79.4565 323.228 82.8119 325.522 83.3908 325.983C83.2729 325.801 83.1764 325.608 83.0584 325.426C80.9613 322.397 78.6009 319.56 76.0047 316.946C74.5897 315.478 73.1532 314.159 71.7167 312.915C70.7841 313.805 66.4532 317.825 63.7839 318.758C61.1146 319.691 57.7057 320.087 55.3044 318.501C54.7295 318.144 54.2359 317.67 53.8555 317.111C53.4751 316.551 53.2164 315.918 53.0962 315.252C52.9759 314.586 52.9968 313.902 53.1574 313.245C53.3181 312.588 53.6149 311.971 54.0287 311.436C56.6122 308.295 63.934 308.885 67.3215 310.225C67.5037 310.289 69.294 311.297 70.5375 311.951C69.8836 311.393 69.2297 310.804 68.5864 310.289C66.2066 308.338 63.9125 306.687 61.865 305.251C60.6965 304.436 59.6138 303.728 58.649 303.107C57.2661 303.493 51.7132 305.015 49.001 304.618C46.2889 304.222 42.9871 302.999 41.6042 300.48C41.2552 299.899 41.0333 299.25 40.9531 298.577C40.8728 297.904 40.936 297.221 41.1385 296.574C41.3411 295.927 41.6783 295.33 42.1281 294.823C42.5779 294.315 43.1301 293.909 43.7482 293.63C47.4895 292.033 53.7178 295.924 56.1084 298.669C56.3121 298.904 59.11 302.957 59.0349 302.957H58.9599C59.9461 303.568 60.9967 304.232 62.1759 304.983C64.2556 306.376 66.5925 307.974 69.026 309.882C71.6501 311.916 74.1556 314.1 76.53 316.421C79.2152 319.011 81.6654 321.834 83.8517 324.858L83.9268 324.975C83.5516 323.839 82.6296 320.687 82.5868 320.377C81.9757 316.785 82.9084 309.506 86.521 307.63C87.1293 307.333 87.7935 307.167 88.4702 307.144C89.1469 307.121 89.8209 307.24 90.4482 307.495C91.0755 307.75 91.6419 308.135 92.1105 308.623C92.579 309.112 92.9392 309.694 93.1674 310.332C94.2394 313.001 93.0817 316.357 91.6773 318.683C90.0801 321.298 84.6021 325.04 84.1733 325.34C86.3207 328.474 88.2581 331.748 89.9728 335.138C90.9805 337.111 91.9346 339.126 92.8673 341.152C92.5778 340.166 92.3313 339.276 92.3098 339.147C91.6988 335.556 92.6314 328.277 96.2441 326.401C96.8523 326.104 97.5165 325.938 98.1932 325.915C98.8699 325.891 99.5439 326.011 100.171 326.266C100.798 326.521 101.365 326.905 101.833 327.394C102.302 327.883 102.662 328.465 102.89 329.103C103.962 331.772 102.805 335.127 101.39 337.454C99.9746 339.78 95.3543 343.092 94.1215 343.95C94.4645 344.732 94.829 345.504 95.1935 346.298C96.8551 350.06 98.4953 353.802 100.221 357.468C100.832 358.754 101.475 359.998 102.119 361.241C101.861 360.362 101.658 359.612 101.636 359.494C101.025 355.913 101.958 348.624 105.57 346.748C106.18 346.452 106.844 346.288 107.521 346.267C108.198 346.245 108.872 346.366 109.499 346.622C110.125 346.877 110.691 347.262 111.16 347.751C111.628 348.24 111.988 348.823 112.217 349.46C113.289 352.129 112.131 355.474 110.716 357.8C109.301 360.126 105.131 363.16 103.673 364.146C104.359 365.401 105.056 366.655 105.817 367.845C106.332 368.638 106.782 369.442 107.339 370.214C107.897 370.986 108.411 371.758 108.947 372.529C110.019 373.955 111.091 375.435 112.217 376.817C112.967 377.771 113.696 378.672 114.425 379.572C113.803 378.307 112.646 375.788 112.571 375.563C111.434 372.122 111.252 364.779 114.532 362.367C115.09 361.984 115.722 361.723 116.387 361.6C117.052 361.477 117.736 361.495 118.393 361.652C119.051 361.81 119.668 362.104 120.205 362.515C120.742 362.926 121.187 363.445 121.511 364.039C122.969 366.515 122.337 370.01 121.297 372.519C120.15 375.274 115.508 379.658 114.929 380.194C115.947 381.749 117.148 383.196 118.306 384.536Z" fill="black"/>
<path d="M32.353 360.448C32.353 360.523 27.8613 358.433 27.5933 358.304C24.4952 356.407 19.6284 350.897 20.5932 346.941C20.7701 346.285 21.0839 345.674 21.5138 345.149C21.9437 344.623 22.4801 344.194 23.0876 343.89C23.6952 343.586 24.3601 343.414 25.0387 343.386C25.7174 343.358 26.3944 343.473 27.0252 343.725C29.7373 344.679 31.5061 347.756 32.3208 350.339C33.2642 353.352 32.353 360.448 32.353 360.448Z" fill="black"/>
</g>
<g opacity="0.15">
<path d="M338.688 303.665C339.556 306.731 344.23 312.145 344.241 312.155C344.251 312.166 346.867 307.985 347.006 307.706C348.539 304.405 349.558 297.137 346.567 294.36C346.057 293.916 345.459 293.584 344.813 293.386C344.167 293.188 343.486 293.127 342.814 293.209C342.143 293.291 341.497 293.513 340.917 293.861C340.337 294.209 339.837 294.675 339.449 295.228C337.712 297.522 337.937 301.049 338.688 303.665Z" fill="black"/>
<path d="M297.523 384.537L297.212 384.901L298.091 387.646L299.377 386.08C300.621 384.569 301.918 382.929 303.237 381.224C305.037 382.213 306.895 383.094 308.8 383.861C308.382 386.906 309.744 392.705 309.926 393.445C308.082 394.024 306.281 394.571 304.566 395.053C303.397 395.396 302.272 395.707 301.178 395.996L302.904 398.14L305.263 397.422C307.128 396.843 309.122 396.189 311.159 395.493C311.523 396.189 314.525 401.839 316.894 403.672C319.038 405.334 322.254 406.888 325.02 406.105C325.678 405.95 326.296 405.657 326.834 405.247C327.372 404.837 327.817 404.319 328.142 403.725C328.466 403.132 328.662 402.477 328.717 401.803C328.772 401.129 328.685 400.451 328.461 399.813C327.003 396.007 319.885 394.249 316.24 394.453C316.025 394.453 313.721 394.849 312.263 395.117C313.099 394.828 313.903 394.56 314.761 394.249C316.444 393.659 318.116 393.016 319.906 392.33L322.5 391.258C323.369 390.915 324.248 390.443 325.137 390.025C327.174 389.028 329.19 387.881 331.184 386.756C331.709 388.235 333.649 393.445 335.525 395.428C337.401 397.411 340.328 399.384 343.179 399.062C343.853 399.009 344.509 398.815 345.103 398.492C345.697 398.169 346.217 397.725 346.629 397.188C347.04 396.651 347.334 396.034 347.491 395.376C347.649 394.718 347.666 394.035 347.542 393.37C346.674 389.393 339.899 386.574 336.276 386.22C336.05 386.22 333.424 386.22 331.988 386.273C333.177 385.566 334.378 384.869 335.568 384.129C339.009 381.985 342.418 379.638 345.827 377.344C346.899 376.636 347.917 375.95 348.968 375.2C349.15 375.725 351.305 381.975 353.417 384.194C355.282 386.166 358.219 388.149 361.071 387.828C361.745 387.775 362.401 387.58 362.995 387.257C363.589 386.934 364.109 386.49 364.52 385.953C364.932 385.417 365.226 384.799 365.383 384.142C365.54 383.484 365.558 382.8 365.434 382.135C364.566 378.158 357.791 375.339 354.167 374.985C353.899 374.985 350.115 374.985 349.161 375.071C351.466 373.549 353.781 372.048 356.118 370.665C359.268 368.775 362.537 367.092 365.906 365.627C365.991 365.873 368.221 372.412 370.376 374.674C372.252 376.647 375.178 378.641 378.03 378.319C378.705 378.266 379.362 378.072 379.957 377.748C380.552 377.424 381.072 376.979 381.484 376.441C381.896 375.903 382.189 375.284 382.346 374.625C382.502 373.966 382.519 373.282 382.393 372.616C381.535 368.639 374.75 365.82 371.126 365.466C370.848 365.466 366.785 365.466 366.045 365.562C366.238 365.487 366.431 365.38 366.635 365.294C370.05 363.905 373.584 362.828 377.194 362.078C379.177 361.639 381.107 361.328 382.983 361.071C383.272 362.325 384.666 368.071 386.381 370.322C388.096 372.573 390.669 374.792 393.595 374.782C394.271 374.801 394.942 374.679 395.567 374.423C396.192 374.167 396.756 373.782 397.223 373.294C397.69 372.806 398.049 372.225 398.277 371.59C398.506 370.954 398.598 370.277 398.548 369.604C398.13 365.552 391.698 362.003 388.139 361.253C387.946 361.253 385.931 361.017 384.462 360.888C385.32 360.792 386.188 360.663 387.003 360.578C390.069 360.267 392.888 360.159 395.396 360.095C396.822 360.095 398.109 360.095 399.309 360.095C400.242 361.167 404.037 365.509 406.556 366.699C409.075 367.889 412.463 368.66 415.014 367.331C415.624 367.039 416.165 366.621 416.602 366.105C417.04 365.589 417.364 364.987 417.553 364.338C417.742 363.688 417.792 363.006 417.7 362.336C417.608 361.666 417.376 361.023 417.019 360.449C414.789 357.051 407.446 356.868 403.94 357.844C403.629 357.919 399.052 359.784 399.095 359.838L399.148 359.902C397.991 359.902 396.747 359.838 395.396 359.838C392.888 359.838 390.036 359.891 386.97 360.149C383.647 360.386 380.339 360.816 377.065 361.435C373.393 362.115 369.788 363.115 366.292 364.426L366.174 364.48C367.106 363.74 369.647 361.575 369.829 361.392C372.305 358.734 375.554 352.141 373.57 348.528C373.226 347.946 372.763 347.442 372.212 347.05C371.66 346.658 371.032 346.387 370.368 346.255C369.704 346.122 369.02 346.131 368.36 346.281C367.701 346.431 367.08 346.718 366.538 347.124C364.18 348.764 363.322 352.195 363.183 354.907C363.065 357.973 365.573 364.115 365.777 364.555C362.252 365.979 358.828 367.641 355.529 369.529C353.61 370.601 351.702 371.769 349.793 372.948C350.587 372.284 351.284 371.673 351.369 371.576C353.856 368.928 357.094 362.336 355.121 358.777C354.777 358.194 354.314 357.69 353.763 357.298C353.211 356.907 352.583 356.636 351.919 356.503C351.255 356.371 350.571 356.38 349.911 356.529C349.251 356.679 348.63 356.966 348.089 357.372C345.731 359.012 344.873 362.443 344.734 365.155C344.594 367.867 346.653 373.195 347.21 374.589L345.066 375.961C341.603 378.18 338.162 380.42 334.71 382.511C333.499 383.24 332.277 383.926 331.055 384.655C331.752 384.054 332.331 383.583 332.416 383.465C334.903 380.806 338.141 374.213 336.168 370.654C335.822 370.073 335.358 369.57 334.805 369.179C334.252 368.788 333.623 368.518 332.959 368.386C332.295 368.253 331.611 368.262 330.95 368.411C330.29 368.56 329.668 368.846 329.125 369.25C326.767 370.89 325.909 374.321 325.77 377.033C325.631 379.745 327.507 384.537 328.161 386.22C326.885 386.884 325.609 387.549 324.344 388.139C323.476 388.514 322.661 388.943 321.771 389.275L319.156 390.347C317.462 390.947 315.736 391.569 314.074 392.116C312.917 392.502 311.813 392.845 310.708 393.188C311.92 392.47 314.278 391.044 314.46 390.862C316.901 388.793 318.769 386.131 319.885 383.132C320.168 382.915 320.43 382.671 320.667 382.403C321.131 381.911 321.485 381.327 321.708 380.689C321.931 380.051 322.017 379.373 321.96 378.7C321.903 378.026 321.706 377.372 321.379 376.78C321.053 376.188 320.606 375.672 320.067 375.264C316.754 372.895 309.84 375.36 306.924 377.526C306.742 377.655 305.037 379.252 303.965 380.27C304.501 379.573 305.037 378.909 305.573 378.18C306.645 376.754 307.717 375.296 308.789 373.742L310.344 371.394C310.88 370.633 311.352 369.743 311.866 368.918C313.013 366.956 314.074 364.919 315.082 362.85C316.336 363.794 320.828 367.074 323.487 367.685C326.145 368.296 329.672 368.339 331.88 366.495C332.414 366.079 332.853 365.556 333.171 364.959C333.488 364.362 333.677 363.705 333.723 363.03C333.77 362.355 333.674 361.679 333.441 361.044C333.208 360.409 332.845 359.83 332.373 359.345C329.458 356.493 322.243 357.887 319.027 359.591C318.834 359.699 316.658 361.178 315.479 362.003C316.09 360.76 316.712 359.506 317.28 358.219C318.941 354.51 320.496 350.715 322.082 346.899C322.565 345.741 323.058 344.583 323.551 343.426C324.001 343.769 329.243 347.789 332.223 348.475C334.871 349.086 338.409 349.129 340.617 347.285C341.151 346.868 341.591 346.344 341.908 345.746C342.226 345.148 342.414 344.49 342.461 343.814C342.507 343.139 342.411 342.461 342.178 341.825C341.946 341.189 341.582 340.61 341.11 340.124C338.194 337.283 330.991 338.677 327.775 340.37C327.528 340.499 324.409 342.632 323.647 343.211C324.719 340.671 325.791 338.141 327.013 335.707C328.594 332.398 330.384 329.193 332.373 326.113C332.577 326.274 338.044 330.487 341.089 331.194C343.737 331.805 347.285 331.848 349.483 330.004C350.016 329.587 350.456 329.063 350.774 328.465C351.091 327.867 351.279 327.209 351.326 326.534C351.372 325.858 351.276 325.18 351.044 324.545C350.811 323.909 350.447 323.329 349.976 322.843C347.071 320.002 339.856 321.396 336.64 323.09C336.383 323.229 333.027 325.523 332.459 325.984C332.566 325.802 332.674 325.609 332.792 325.427C334.889 322.398 337.249 319.561 339.845 316.947C341.26 315.479 342.697 314.16 344.133 312.916C345.066 313.806 349.397 317.826 352.066 318.759C354.735 319.691 358.144 320.088 360.546 318.502C361.121 318.145 361.614 317.671 361.995 317.112C362.375 316.552 362.634 315.919 362.754 315.253C362.874 314.587 362.853 313.903 362.693 313.246C362.532 312.589 362.235 311.972 361.821 311.437C359.238 308.296 351.916 308.886 348.529 310.226C348.346 310.29 346.556 311.298 345.313 311.952C345.956 311.394 346.62 310.805 347.253 310.29C349.633 308.339 351.937 306.688 353.985 305.252C355.153 304.437 356.236 303.729 357.201 303.108C358.573 303.494 364.137 305.016 366.849 304.619C369.561 304.223 372.852 303 374.246 300.481C374.591 299.899 374.811 299.251 374.889 298.578C374.967 297.906 374.903 297.224 374.701 296.578C374.499 295.932 374.163 295.336 373.715 294.828C373.267 294.32 372.718 293.912 372.102 293.631C368.35 292.034 362.132 295.925 359.742 298.67C359.538 298.905 356.74 302.958 356.804 302.958H356.89C355.904 303.569 354.853 304.233 353.674 304.984C351.594 306.377 349.247 307.975 346.824 309.883C344.2 311.917 341.694 314.101 339.32 316.422C336.635 319.012 334.185 321.835 331.998 324.859L331.923 324.976C332.288 323.84 333.22 320.688 333.263 320.378C333.864 316.786 332.931 309.507 329.318 307.631C328.711 307.334 328.047 307.168 327.371 307.145C326.695 307.122 326.022 307.242 325.396 307.497C324.769 307.752 324.204 308.136 323.736 308.625C323.269 309.114 322.91 309.696 322.683 310.333C321.611 313.002 322.768 316.358 324.173 318.684C325.759 321.299 331.248 325.041 331.677 325.341C329.525 328.473 327.588 331.746 325.877 335.139C324.869 337.111 323.915 339.127 322.983 341.153C323.272 340.167 323.519 339.277 323.54 339.148C324.151 335.557 323.219 328.278 319.606 326.402C318.998 326.105 318.334 325.939 317.657 325.916C316.98 325.892 316.306 326.012 315.679 326.267C315.052 326.522 314.485 326.906 314.017 327.395C313.548 327.884 313.188 328.466 312.96 329.104C311.888 331.773 313.045 335.128 314.45 337.455C315.854 339.781 320.496 343.093 321.729 343.951C321.375 344.733 321.021 345.505 320.657 346.299C318.995 350.061 317.344 353.802 315.629 357.469C315.018 358.755 314.375 359.999 313.731 361.242C313.989 360.363 314.192 359.613 314.214 359.495C314.825 355.914 313.892 348.625 310.269 346.749C309.66 346.455 308.997 346.293 308.321 346.272C307.645 346.251 306.973 346.372 306.347 346.628C305.722 346.884 305.157 347.268 304.689 347.756C304.222 348.244 303.862 348.825 303.633 349.461C302.561 352.13 303.719 355.475 305.123 357.801C306.528 360.127 310.719 363.161 312.177 364.147C311.48 365.402 310.794 366.656 310.033 367.846C309.508 368.639 309.068 369.443 308.511 370.215L306.892 372.53C305.82 373.956 304.748 375.435 303.676 376.818C302.926 377.772 302.197 378.673 301.468 379.573C302.079 378.308 303.247 375.789 303.312 375.564C304.459 372.123 304.641 364.78 301.361 362.368C300.803 361.985 300.171 361.724 299.506 361.601C298.841 361.478 298.157 361.496 297.5 361.653C296.842 361.811 296.225 362.105 295.688 362.516C295.15 362.927 294.706 363.446 294.382 364.04C292.924 366.516 293.556 370.011 294.596 372.52C295.733 375.275 300.385 379.659 300.964 380.195C299.881 381.75 298.681 383.197 297.523 384.537Z" fill="black"/>
<path d="M383.476 360.449C383.476 360.524 387.967 358.434 388.235 358.305C391.333 356.408 396.2 350.898 395.236 346.942C395.059 346.286 394.745 345.675 394.315 345.149C393.885 344.624 393.349 344.195 392.741 343.891C392.134 343.587 391.469 343.415 390.79 343.387C390.111 343.359 389.434 343.474 388.804 343.726C386.091 344.68 384.323 347.757 383.508 350.34C382.564 353.353 383.476 360.449 383.476 360.449Z" fill="black"/>
</g>
<path d="M290.866 322.693L219.846 292.924L279.76 148.976L350.78 178.745L290.866 322.693Z" fill="#D1D1D1" stroke="#263238" stroke-linecap="round" stroke-linejoin="round"/>
<path d="M336.522 193.442C335.303 192.938 334.206 192.178 333.305 191.215C332.404 190.251 331.719 189.106 331.297 187.856C330.874 186.607 330.724 185.281 330.856 183.968C330.988 182.656 331.4 181.386 332.063 180.246L291.327 163.158C291.222 163.522 291.097 163.88 290.951 164.23C290.482 165.362 289.794 166.391 288.926 167.256C288.057 168.12 287.026 168.805 285.892 169.269C284.758 169.734 283.543 169.969 282.318 169.961C281.092 169.954 279.88 169.704 278.752 169.226C278.57 169.151 278.398 169.054 278.227 168.968L233.031 277.819C233.213 277.884 233.396 277.937 233.567 278.012C234.792 278.509 235.896 279.265 236.802 280.228C237.708 281.19 238.396 282.337 238.818 283.59C239.24 284.843 239.387 286.172 239.249 287.487C239.111 288.802 238.69 290.071 238.016 291.209L278.806 308.296C278.904 307.931 279.026 307.573 279.17 307.224C279.642 306.099 280.332 305.077 281.199 304.218C282.066 303.359 283.094 302.679 284.223 302.217C285.353 301.755 286.563 301.52 287.784 301.526C289.004 301.532 290.212 301.778 291.337 302.25C291.691 302.4 292.034 302.583 292.409 302.765L337.648 193.828C337.263 193.729 336.887 193.6 336.522 193.442ZM278.752 249.979C275.976 248.815 273.607 246.854 271.946 244.344C270.284 241.833 269.404 238.887 269.417 235.876C269.43 232.866 270.335 229.927 272.018 227.431C273.701 224.935 276.087 222.994 278.873 221.854C281.659 220.714 284.72 220.425 287.67 221.024C290.62 221.623 293.326 223.084 295.447 225.221C297.567 227.358 299.005 230.076 299.581 233.031C300.157 235.986 299.843 239.045 298.681 241.822C297.909 243.667 296.782 245.342 295.362 246.751C293.943 248.16 292.259 249.276 290.408 250.034C288.557 250.791 286.575 251.177 284.575 251.167C282.575 251.158 280.596 250.754 278.752 249.979Z" fill="white" stroke="#263238" stroke-linecap="round" stroke-linejoin="round"/>
<path d="M289.933 323.058L222.547 285.785L297.695 149.158L365.08 186.442L289.933 323.058Z" fill="#D1D1D1" stroke="#263238" stroke-linecap="round" stroke-linejoin="round"/>
<path d="M349.311 199.499C348.243 198.909 347.301 198.114 346.54 197.16C345.778 196.206 345.213 195.111 344.875 193.938C344.538 192.765 344.435 191.537 344.572 190.325C344.71 189.112 345.085 187.938 345.677 186.871C345.872 186.539 346.083 186.217 346.31 185.906L307.61 164.466C307.47 164.832 307.309 165.19 307.128 165.538C305.933 167.692 303.932 169.284 301.564 169.963C299.196 170.643 296.655 170.354 294.5 169.161C294.329 169.071 294.165 168.971 294.007 168.861L237.298 272.18C237.473 272.254 237.645 272.336 237.812 272.427C239.968 273.62 241.562 275.621 242.244 277.989C242.925 280.357 242.639 282.898 241.447 285.055C241.257 285.39 241.046 285.712 240.814 286.02L279.503 307.46C279.646 307.093 279.811 306.735 279.996 306.388C280.585 305.319 281.38 304.377 282.334 303.616C283.288 302.855 284.383 302.29 285.556 301.952C286.729 301.615 287.957 301.512 289.17 301.649C290.383 301.787 291.556 302.162 292.624 302.754C292.957 302.946 293.279 303.157 293.589 303.386L350.405 199.981C350.029 199.847 349.664 199.686 349.311 199.499ZM285.784 249.465C283.148 248.006 281.003 245.798 279.621 243.121C278.24 240.443 277.683 237.416 278.022 234.422C278.361 231.428 279.58 228.602 281.526 226.301C283.471 224 286.055 222.327 288.951 221.495C291.847 220.663 294.924 220.708 297.794 221.625C300.665 222.542 303.198 224.289 305.075 226.646C306.952 229.004 308.088 231.864 308.339 234.867C308.59 237.87 307.944 240.879 306.485 243.515C304.528 247.048 301.248 249.66 297.366 250.776C293.485 251.891 289.319 251.42 285.784 249.465Z" fill="white" stroke="#263238" stroke-linecap="round" stroke-linejoin="round"/>
<path d="M288.689 323.379L227.114 277.133L320.442 152.224L382.018 198.47L288.689 323.379Z" fill="#D1D1D1" stroke="#263238" stroke-linecap="round" stroke-linejoin="round"/>
<path d="M364.598 209.222C363.616 208.49 362.788 207.571 362.163 206.517C361.537 205.464 361.127 204.298 360.954 203.085C360.782 201.872 360.851 200.637 361.158 199.451C361.465 198.266 362.004 197.152 362.743 196.176C362.977 195.869 363.231 195.579 363.504 195.307L328.128 168.743C327.935 169.079 327.724 169.405 327.496 169.719C326.015 171.686 323.813 172.985 321.375 173.331C318.937 173.676 316.462 173.04 314.492 171.563C314.332 171.445 314.192 171.316 314.042 171.198L243.58 265.663C243.74 265.77 243.901 265.866 244.051 265.984C246.021 267.466 247.322 269.668 247.67 272.108C248.018 274.548 247.383 277.026 245.906 278.998C245.672 279.305 245.418 279.595 245.145 279.867L280.521 306.42C280.704 306.084 280.912 305.761 281.142 305.455C281.876 304.48 282.794 303.658 283.845 303.038C284.896 302.417 286.059 302.009 287.268 301.838C288.476 301.667 289.706 301.735 290.888 302.04C292.07 302.344 293.181 302.878 294.157 303.611C294.463 303.841 294.753 304.092 295.025 304.362L365.584 209.854C365.242 209.664 364.913 209.453 364.598 209.222ZM294.768 249.958C292.359 248.148 290.541 245.665 289.544 242.823C288.546 239.98 288.414 236.905 289.164 233.988C289.914 231.07 291.512 228.44 293.756 226.43C296.001 224.421 298.79 223.122 301.773 222.698C304.756 222.274 307.797 222.743 310.512 224.047C313.228 225.352 315.496 227.432 317.03 230.025C318.563 232.618 319.293 235.607 319.128 238.615C318.962 241.623 317.909 244.515 316.1 246.924C314.897 248.522 313.39 249.868 311.666 250.883C309.942 251.898 308.035 252.564 306.054 252.842C304.073 253.119 302.056 253.004 300.119 252.502C298.183 252 296.364 251.121 294.768 249.915V249.958Z" fill="white" stroke="#263238" stroke-linecap="round" stroke-linejoin="round"/>
<path d="M287.457 323.519L232.613 269.447L341.807 158.142L396.651 212.213L287.457 323.519Z" fill="#D1D1D1" stroke="#263238" stroke-linecap="round" stroke-linejoin="round"/>
<path d="M377.944 220.543C376.189 218.812 375.193 216.456 375.175 213.991C375.156 211.527 376.118 209.156 377.848 207.4C378.122 207.129 378.412 206.875 378.716 206.639L347.232 175.551C346.996 175.853 346.746 176.142 346.481 176.419C344.751 178.175 342.395 179.171 339.93 179.189C337.465 179.207 335.094 178.245 333.339 176.516C333.201 176.381 333.073 176.237 332.953 176.087L250.484 260.292C250.623 260.421 250.773 260.539 250.912 260.678C252.668 262.408 253.664 264.765 253.682 267.23C253.7 269.694 252.739 272.065 251.009 273.821C250.73 274.089 250.441 274.346 250.141 274.582L281.625 305.67C281.858 305.36 282.113 305.066 282.386 304.791C283.242 303.922 284.261 303.23 285.384 302.755C286.507 302.28 287.713 302.031 288.932 302.022C290.152 302.013 291.361 302.245 292.491 302.703C293.621 303.162 294.65 303.838 295.518 304.695C295.789 304.969 296.043 305.259 296.28 305.563L378.824 221.293C378.516 221.06 378.223 220.81 377.944 220.543ZM303.312 251.523C301.169 249.409 299.702 246.707 299.095 243.758C298.488 240.81 298.769 237.748 299.902 234.959C301.036 232.17 302.97 229.78 305.461 228.091C307.953 226.401 310.889 225.488 313.899 225.467C316.909 225.446 319.858 226.318 322.372 227.973C324.887 229.628 326.855 231.991 328.027 234.763C329.198 237.536 329.522 240.594 328.956 243.55C328.391 246.507 326.961 249.229 324.848 251.373C323.445 252.798 321.774 253.932 319.931 254.711C318.089 255.49 316.111 255.898 314.111 255.911C312.111 255.925 310.128 255.545 308.275 254.792C306.422 254.039 304.735 252.928 303.312 251.523Z" fill="white" stroke="#263238" stroke-linecap="round" stroke-linejoin="round"/>
<path d="M217.723 311.459L119.099 374.128L14.2256 208.482L112.85 145.813C114.574 144.718 116.663 144.353 118.657 144.797C120.651 145.241 122.387 146.459 123.484 148.182L220.135 300.824C220.676 301.681 221.042 302.635 221.213 303.633C221.384 304.632 221.357 305.654 221.133 306.641C220.909 307.629 220.493 308.563 219.907 309.389C219.322 310.216 218.58 310.919 217.723 311.459Z" fill="#A8A8A8" stroke="#263238" stroke-linecap="round" stroke-linejoin="round"/>
<path d="M214.947 311.566L116.323 374.235L11.4595 208.59L110.083 145.921C111.808 144.826 113.897 144.46 115.891 144.904C117.885 145.348 119.621 146.566 120.718 148.29L217.359 300.932C217.899 301.788 218.265 302.743 218.436 303.741C218.607 304.739 218.58 305.761 218.356 306.749C218.132 307.736 217.716 308.67 217.131 309.497C216.546 310.323 215.803 311.026 214.947 311.566Z" fill="white" stroke="#263238" stroke-linecap="round" stroke-linejoin="round"/>
<path d="M211.731 313.752L113.107 376.421L8.23291 210.776L106.857 148.107C108.583 147.011 110.674 146.645 112.669 147.09C114.665 147.534 116.403 148.752 117.502 150.476L214.143 303.118C214.683 303.975 215.049 304.929 215.22 305.927C215.391 306.925 215.364 307.947 215.14 308.935C214.916 309.923 214.5 310.856 213.915 311.683C213.33 312.509 212.588 313.213 211.731 313.752Z" fill="#A8A8A8" stroke="#263238" stroke-linecap="round" stroke-linejoin="round"/>
<path d="M60.9326 231.369L53.3535 219.449L56.3122 217.616C56.8915 217.211 57.5693 216.97 58.274 216.919C58.8694 216.904 59.452 217.093 59.9249 217.455C60.4995 217.885 60.9839 218.424 61.3506 219.041C61.7267 219.593 61.969 220.224 62.0582 220.885C62.1384 221.467 62.0334 222.06 61.758 222.579C61.4321 223.16 60.9588 223.644 60.3858 223.983L59.0673 224.809L62.5942 230.362L60.9326 231.369ZM58.3169 223.565L59.078 223.083C59.4853 222.857 59.8485 222.559 60.15 222.204C60.2529 222.072 60.3271 221.92 60.3677 221.757C60.4083 221.595 60.4145 221.425 60.3858 221.26C60.2876 220.809 60.0978 220.382 59.8284 220.006C59.5645 219.556 59.2438 219.142 58.8743 218.773C58.755 218.654 58.6094 218.565 58.4492 218.513C58.2891 218.461 58.1188 218.447 57.9524 218.473C57.4672 218.588 57.0086 218.796 56.6017 219.084L55.8191 219.577L58.3169 223.565Z" fill="white"/>
<path d="M66.7962 227.639L61.7471 214.11L63.3551 213.092L73.4748 223.394L71.8989 224.391L69.444 221.743L67.0213 223.287L68.3506 226.653L66.7962 227.639ZM66.496 221.904L68.4792 220.649L64.0626 215.911L66.496 221.904Z" fill="white"/>
<path d="M77.5805 220.971C76.9932 221.378 76.3006 221.605 75.5866 221.625C74.9369 221.617 74.3036 221.419 73.7642 221.057C73.153 220.642 72.6226 220.119 72.1991 219.513L73.4212 218.184C73.7158 218.568 74.0422 218.927 74.3967 219.256C74.6996 219.55 75.0665 219.77 75.4687 219.899C75.6791 219.944 75.8965 219.944 76.1069 219.9C76.3174 219.855 76.5162 219.768 76.6908 219.642C76.8789 219.54 77.0431 219.4 77.1725 219.23C77.3019 219.06 77.3935 218.864 77.4412 218.656C77.4916 218.214 77.3728 217.77 77.1089 217.412C76.8376 216.936 76.4204 216.56 75.9189 216.34C75.4113 216.158 74.8871 216.025 74.3538 215.944L71.2343 215.45C70.6707 215.371 70.1302 215.173 69.6477 214.872C69.1468 214.521 68.7264 214.068 68.4149 213.542C68.1564 213.184 67.9745 212.776 67.8804 212.345C67.7863 211.913 67.7822 211.467 67.8682 211.034C68.11 210.176 68.68 209.448 69.4548 209.008C69.8724 208.734 70.3324 208.531 70.8162 208.407C71.2281 208.306 71.6586 208.306 72.0705 208.407C72.5022 208.529 72.9064 208.732 73.2604 209.008C73.6907 209.355 74.0792 209.75 74.4181 210.187L73.2497 211.473C72.9908 211.122 72.7001 210.796 72.3813 210.498C72.1145 210.243 71.7792 210.072 71.4165 210.005C71.0082 209.978 70.6023 210.085 70.26 210.309C69.9178 210.534 69.6577 210.863 69.5191 211.248C69.4779 211.457 69.4815 211.671 69.5295 211.878C69.5776 212.085 69.669 212.28 69.7978 212.449C69.9819 212.763 70.2393 213.028 70.5482 213.221C70.8796 213.404 71.2438 213.521 71.6202 213.564L74.7612 214.057C75.5045 214.16 76.2276 214.377 76.9052 214.7C77.6294 215.058 78.2358 215.616 78.6525 216.308C78.9969 216.834 79.2033 217.439 79.2529 218.066C79.2782 218.631 79.1445 219.192 78.8669 219.685C78.5491 220.212 78.1076 220.653 77.5805 220.971Z" fill="white"/>
<path d="M84.5377 216.544C83.9504 216.95 83.2577 217.177 82.5438 217.198C81.8972 217.19 81.267 216.993 80.7321 216.629C80.1162 216.22 79.5849 215.696 79.167 215.086L80.4319 213.756C80.7236 214.143 81.0501 214.502 81.4074 214.828C81.7096 215.124 82.0767 215.344 82.4794 215.472C82.6898 215.517 82.9073 215.517 83.1179 215.473C83.3284 215.429 83.5273 215.341 83.7015 215.214C83.8906 215.117 84.0559 214.979 84.1856 214.81C84.3153 214.642 84.4062 214.447 84.4519 214.239C84.5082 213.795 84.3932 213.346 84.1303 212.985C83.8522 212.51 83.4322 212.135 82.9297 211.913C82.4257 211.73 81.9051 211.597 81.3753 211.516L78.245 211.023C77.6815 210.943 77.141 210.746 76.6585 210.444C76.1575 210.094 75.7372 209.641 75.4257 209.115C75.1672 208.756 74.9852 208.349 74.8911 207.917C74.7971 207.486 74.7929 207.039 74.879 206.606C75.1258 205.751 75.6996 205.027 76.4762 204.591C76.8908 204.316 77.3469 204.11 77.827 203.98C78.2418 203.873 78.6771 203.873 79.0919 203.98C79.5233 204.097 79.9275 204.297 80.2818 204.569C80.7112 204.914 81.0964 205.31 81.4289 205.749L80.2604 207.035C80.0016 206.684 79.7109 206.357 79.3921 206.059C79.1279 205.801 78.7914 205.629 78.4273 205.566C78.0199 205.545 77.6163 205.654 77.2751 205.878C76.9339 206.101 76.6729 206.428 76.5298 206.81C76.4913 207.018 76.4962 207.233 76.5442 207.439C76.5921 207.646 76.6821 207.84 76.8086 208.01C76.9958 208.325 77.2524 208.593 77.559 208.793C77.8956 208.964 78.2576 209.08 78.631 209.136L81.7719 209.618C82.4923 209.732 83.1927 209.949 83.8516 210.262C84.5738 210.622 85.1795 211.18 85.599 211.87C85.948 212.394 86.1549 213 86.1993 213.628C86.2246 214.193 86.0909 214.754 85.8134 215.246C85.5031 215.779 85.0646 216.225 84.5377 216.544Z" fill="white"/>
<path d="M88.6005 213.778L81.0215 201.857L83.9802 199.981C84.5565 199.569 85.2354 199.325 85.942 199.274C86.5366 199.264 87.1176 199.452 87.5928 199.81C88.1676 200.244 88.6519 200.787 89.0186 201.407C89.399 201.956 89.6417 202.588 89.7261 203.251C89.8063 203.83 89.7012 204.419 89.426 204.934C89.103 205.517 88.629 206.002 88.0538 206.338L86.7352 207.174L90.2621 212.717L88.6005 213.778ZM85.9848 205.985L86.746 205.491C87.1558 205.269 87.5196 204.971 87.818 204.612C87.9196 204.48 87.9922 204.327 88.031 204.165C88.0698 204.002 88.0739 203.833 88.0431 203.669C87.9447 203.219 87.759 202.793 87.4964 202.415C87.2357 201.966 86.9147 201.555 86.5423 201.193C86.423 201.074 86.2774 200.985 86.1172 200.932C85.957 200.88 85.7868 200.867 85.6204 200.893C85.1337 200.998 84.674 201.202 84.2696 201.493L83.4871 201.997L85.9848 205.985Z" fill="white"/>
<path d="M98.7953 207.485C98.1431 207.943 97.3726 208.204 96.5762 208.235C95.8879 208.227 95.2228 207.985 94.6895 207.549C94.0497 207.022 93.5025 206.392 93.0708 205.684L90.1978 201.171C89.743 200.493 89.4161 199.737 89.2331 198.941C89.0761 198.29 89.148 197.605 89.4367 197.001C89.8115 196.301 90.3763 195.721 91.0662 195.329C91.7147 194.87 92.4809 194.606 93.2745 194.567C93.9437 194.569 94.593 194.796 95.1183 195.211C95.7558 195.713 96.2969 196.327 96.7156 197.022L99.5993 201.557C100.048 202.24 100.378 202.994 100.575 203.787C100.733 204.456 100.673 205.159 100.403 205.791C100.046 206.502 99.4863 207.091 98.7953 207.485ZM97.9698 206.177C98.338 205.973 98.6282 205.652 98.7953 205.266C98.9145 204.919 98.9145 204.541 98.7953 204.194C98.6399 203.762 98.431 203.352 98.1735 202.972L94.8611 197.741C94.619 197.353 94.335 196.994 94.0142 196.669C93.7677 196.417 93.4421 196.258 93.0922 196.218C92.6713 196.217 92.2614 196.353 91.9238 196.604C91.5575 196.808 91.262 197.118 91.0769 197.494C90.9459 197.839 90.9459 198.221 91.0769 198.566C91.2263 198.993 91.4279 199.4 91.6772 199.777L95.0004 204.998C95.2406 205.389 95.5287 205.75 95.858 206.07C96.1079 206.332 96.4416 206.499 96.8014 206.542C97.2199 206.549 97.6295 206.421 97.9698 206.177Z" fill="white"/>
<path d="M103.598 204.248L96.019 192.327L98.4203 190.794C99.0698 190.351 99.7973 190.035 100.564 189.862C101.179 189.739 101.817 189.838 102.365 190.14C103.002 190.537 103.529 191.086 103.898 191.738C104.176 192.156 104.396 192.611 104.552 193.088C104.696 193.49 104.744 193.919 104.692 194.343C104.627 194.738 104.457 195.108 104.198 195.415L109.687 200.314L108.09 201.332L102.976 196.733L101.679 197.548L105.228 203.144L103.598 204.248ZM100.95 196.401L101.583 196.004C101.995 195.771 102.358 195.462 102.655 195.093C102.866 194.802 102.958 194.442 102.912 194.085C102.828 193.608 102.641 193.154 102.365 192.756C102.07 192.198 101.599 191.753 101.025 191.491C100.705 191.439 100.377 191.458 100.064 191.545C99.7516 191.632 99.4614 191.785 99.2136 191.995L98.4739 192.456L100.95 196.401Z" fill="white"/>
<path d="M112.592 198.556L105.796 187.836L103.78 189.122L102.944 187.921L108.583 184.33L109.366 185.574L107.404 186.817L114.2 197.537L112.592 198.556Z" fill="white"/>
<path d="M155.283 272.727C159.97 252.634 147.481 232.545 127.387 227.858C107.294 223.171 87.2053 235.661 82.5183 255.754C77.8313 275.848 90.3207 295.936 110.414 300.623C130.508 305.31 150.596 292.821 155.283 272.727Z" stroke="white" stroke-miterlimit="10"/>
<path d="M138.93 295.777C146.395 291.033 143.474 273.07 132.407 255.657C121.339 238.244 106.315 227.974 98.85 232.719C91.385 237.463 94.3057 255.426 105.374 272.839C116.441 290.252 131.465 300.522 138.93 295.777Z" stroke="white" stroke-miterlimit="10"/>
<path d="M85.4922 247.986L118.563 226.964" stroke="white" stroke-miterlimit="10"/>
<path d="M81.772 269.297L139.435 232.635" stroke="white" stroke-miterlimit="10"/>
<path d="M98.5381 295.69L156.212 259.027" stroke="white" stroke-miterlimit="10"/>
<path d="M87.293 284.315L150.702 244.019" stroke="white" stroke-miterlimit="10"/>
<path d="M119.721 301.832L152.792 280.811" stroke="white" stroke-miterlimit="10"/>
<path d="M293 469.766C339.754 423.012 339.754 347.209 293 300.455C246.246 253.701 170.443 253.701 123.689 300.455C76.9348 347.209 76.9348 423.012 123.689 469.766C170.443 516.52 246.246 516.52 293 469.766Z" fill="#91B3FA" stroke="#263238" stroke-linecap="round" stroke-linejoin="round"/>
<path d="M184.298 495.875C190.716 497.272 197.245 498.104 203.808 498.362" stroke="#263238" stroke-linecap="round" stroke-linejoin="round"/>
<path d="M169.623 491.619C172.874 492.798 176.176 493.835 179.528 494.728" stroke="#263238" stroke-linecap="round" stroke-linejoin="round"/>
<path d="M99.3312 354.103C91.7139 380.935 94.2542 409.634 106.466 434.711C118.679 459.788 139.706 479.484 165.527 490.032" stroke="#263238" stroke-linecap="round" stroke-linejoin="round"/>
<path d="M114.564 321.504C110.47 327.539 106.966 333.954 104.102 340.661" stroke="#263238" stroke-linecap="round" stroke-linejoin="round"/>
<path d="M192.124 331.934L204.323 334.463L208.482 338.784L213.907 339.62L215.633 344.765L214.368 348.249L210.669 349.943L201.611 348.464L201.364 347.349L205.652 344.358L202.694 338.902L194.589 337.797L190.269 334.099L192.124 331.934Z" fill="white"/>
<path d="M290.48 444.558L280.832 442.928L269.104 441.449L260.528 443.357L252.113 443.475L243.676 447.388L238.745 448.782L235.69 449.457L230.609 454.077L225.549 457.529L216.973 454.474L217.187 446.273L212.041 445.383L206.499 446.616L205.106 444.301L204.559 439.187L201.997 436.85L198.234 438.265L197.741 441.288L193.089 442.607L187.814 438.544L184.673 432.251L187.117 423.557L195.275 422.325L197.934 423.783L201.257 423.043L204.87 419.623L208.718 419.923L215.622 427.427L217.498 426.72L215.525 420.459L213.124 417.501L212.513 412.141L221.786 405.43L220.896 394.86L224.53 390.261L226.674 383.079L229.333 381.91L234.779 376.336L234.564 374.052L230.19 375.317L228.872 373.281L225.817 373.956L221.346 376.1L222.761 371.994L231.852 367.063L233.524 364.083L238.756 369.314L241.811 371.265L245.445 369.293L242.979 366.077L236.237 363.204L227.918 357.201L219.931 353.985L213.028 354.36L209.072 351.755L204.355 351.616L204.044 352.848L205.277 361.017L207.003 363.536L206.478 372.97L199.939 369.754V365.68L193.507 364.201L190.291 361.703L190.13 354.467L196.883 346.856L195.961 340.07L192.971 341.024L190.473 338.966L188.704 335.021L186.699 335.171L186.56 339.824L183.633 341.056L180.128 331.687L177.609 330.797L173.321 329.993L169.376 333.209L176.097 337.251L178.241 341.721L166.589 336.447L158.013 330.497L155.794 323.132L148.086 322.511L143.348 327.345C142.181 328.459 140.958 329.511 139.681 330.497C137.602 331.512 135.453 332.375 133.249 333.081L133.185 338.044L126.86 339.738L128.093 342.664L138.727 342.053L145.288 346.706L147.432 356.418L146.285 365.691L148.869 374.717L144.12 390.036L146.96 410.651L152.042 421.746L157.616 429.829L161.904 429.453L159.524 425.326L156.576 422.485L153.832 416.697L156.201 415.625L162.301 424.747L167.05 433.012L168.647 440.227L175.336 445.437L186.367 450.24L201.654 450.915L207.014 454.131L211.302 457.829L216.973 459.77L223.405 460.08L229.44 458.44C229.44 458.44 229.783 461.281 230.083 462.664C230.383 464.047 227.553 469.632 227.553 469.632L225.742 475.86L229.311 481.467L235.969 482.603L246.538 489.571L250.826 490.375L251.748 494.535L252.66 496.368C273.467 488.093 291.523 474.123 304.759 456.06L304.459 454.013L308.929 438.758L304.769 437.065L290.48 444.558Z" fill="white"/>
<path d="M294.993 328.59L290.769 324.002L285.527 318.76L282.579 310.687L287.757 310.409L287.414 307.579L283.748 308.104L286.492 306.035L289.386 303.355L288.775 300.578L284.487 296.88L282.45 291.07C261.95 274.925 236.737 265.918 210.648 265.417C184.558 264.915 159.018 272.948 137.913 288.293L145.309 291.402L142.544 297.266L137.516 299.539L138.588 307.15L136.562 308.479L134.418 312.145L135.801 317.077L140.646 316.583L139.746 321.729L144.463 320.657L150.23 308.608L150.08 303.977L157.723 301.704L158.924 297.941L166.782 295.326L166.567 290.427L172.324 288.851C172.324 288.851 176.001 285.71 176.826 285.528C178.508 285.513 180.189 285.624 181.854 285.86L186.753 288.272L192.574 286.975L196.862 282.815L203.358 281.958C204.409 282.363 205.541 282.511 206.66 282.387C208.043 282.076 211.773 279.171 211.773 279.171L220.928 282.387L224.809 284.145L225.731 288.304L230.019 287.929L230.855 285.131L234.832 285.989L235.047 288.272L227.21 292.346L233.289 297.395L244.502 300.729L249.862 305.349L256.09 304.545L256.862 301.468L258.952 300.396L250.516 296.451L245.949 296.88L249.304 294.972L244.93 290.995L249.583 289.676L256.433 291.649L259.295 297.995L263.144 300.922L267.432 308.426L274.518 311.502L276.544 320.657L283.855 323.401L284.251 326.51V330.305L287.028 334.925L288.1 337.305L292.999 337.091L294.178 331.881L294.993 328.59Z" fill="white"/>
<path d="M292.388 299.849L292.741 301.446L292.345 306.184L294.039 309.883L297.34 310.322L298.509 315.586L294.875 314.942L297.362 330.1L295.389 336.951L299.334 344.219L303.676 346.749L307.01 361.757L313.195 372.605L319.048 380.624L325.802 380.87L326.788 374.824L327.539 373.924C327.068 368.946 326.291 364.002 325.212 359.12C320.236 336.603 308.833 316.014 292.388 299.849Z" fill="white"/>
<path d="M227.939 312.348L207.839 308.36L199.864 310.429L199.092 316.132L194.954 313.259L189.165 316.004L190.644 325.287L196.433 327.774L198.867 321.707L203.959 324.944L214.218 330.519L217.67 338.194L226.91 345.752L238.134 341.217L236.933 337.122L233.385 332.963L230.362 321.985L232.099 316.658L227.939 312.348Z" fill="white"/>
<path d="M244.266 315.114L239.86 314.932L236.933 318.791L240.664 326.402L244.266 325.598V315.114Z" fill="white"/>
<path d="M271.237 314.664L260.689 311.759L258.009 308.864L255.983 310.194L259.156 315.307L262.415 322.146L266.949 322.886L267.539 321.6L264.109 317.987L271.945 319.166L271.237 314.664Z" fill="white"/>
<path d="M212.481 432.777L211.613 434.139L220.489 434.782L224.68 437.923L230.073 437.312L231.338 433.828L224.713 434.139L212.481 432.777Z" fill="white"/>
<path d="M238.337 432.562L232.881 435.521L234.199 437.558L241.414 435.961L242.304 433.431L239.87 434.267L238.337 432.562Z" fill="white"/>
<path d="M192.124 331.934L204.323 334.463L208.482 338.784L213.907 339.62L215.633 344.765L214.368 348.249L210.669 349.943L201.611 348.464L201.364 347.349L205.652 344.358L202.694 338.902L194.589 337.797L190.269 334.099L192.124 331.934Z" stroke="#263238" stroke-linecap="round" stroke-linejoin="round"/>
<path d="M290.48 444.558L280.832 442.928L269.104 441.449L260.528 443.357L252.113 443.475L243.676 447.388L238.745 448.782L235.69 449.457L230.609 454.077L225.549 457.529L216.973 454.474L217.187 446.273L212.041 445.383L206.499 446.616L205.106 444.301L204.559 439.187L201.997 436.85L198.234 438.265L197.741 441.288L193.089 442.607L187.814 438.544L184.673 432.251L187.117 423.557L195.275 422.325L197.934 423.783L201.257 423.043L204.87 419.623L208.718 419.923L215.622 427.427L217.498 426.72L215.525 420.459L213.124 417.501L212.513 412.141L221.786 405.43L220.896 394.86L224.53 390.261L226.674 383.079L229.333 381.91L234.779 376.336L234.564 374.052L230.19 375.317L228.872 373.281L225.817 373.956L221.346 376.1L222.761 371.994L231.852 367.063L233.524 364.083L238.756 369.314L241.811 371.265L245.445 369.293L242.979 366.077L236.237 363.204L227.918 357.201L219.931 353.985L213.028 354.36L209.072 351.755L204.355 351.616L204.044 352.848L205.277 361.017L207.003 363.536L206.478 372.97L199.939 369.754V365.68L193.507 364.201L190.291 361.703L190.13 354.467L196.883 346.856L195.961 340.07L192.971 341.024L190.473 338.966L188.704 335.021L186.699 335.171L186.56 339.824L183.633 341.056L180.128 331.687L177.609 330.797L173.321 329.993L169.376 333.209L176.097 337.251L178.241 341.721L166.589 336.447L158.013 330.497L155.794 323.132L148.086 322.511L143.348 327.345C142.181 328.459 140.958 329.511 139.681 330.497C137.602 331.512 135.453 332.375 133.249 333.081L133.185 338.044L126.86 339.738L128.093 342.664L138.727 342.053L145.288 346.706L147.432 356.418L146.285 365.691L148.869 374.717L144.12 390.036L146.96 410.651L152.042 421.746L157.616 429.829L161.904 429.453L159.524 425.326L156.576 422.485L153.832 416.697L156.201 415.625L162.301 424.747L167.05 433.012L168.647 440.227L175.336 445.437L186.367 450.24L201.654 450.915L207.014 454.131L211.302 457.829L216.973 459.77L223.405 460.08L229.44 458.44C229.44 458.44 229.783 461.281 230.083 462.664C230.383 464.047 227.553 469.632 227.553 469.632L225.742 475.86L229.311 481.467L235.969 482.603L246.538 489.571L250.826 490.375L251.748 494.535L252.66 496.368C273.467 488.093 291.523 474.123 304.759 456.06L304.459 454.013L308.929 438.758L304.769 437.065L290.48 444.558Z" stroke="#263238" stroke-linecap="round" stroke-linejoin="round"/>
<path d="M294.993 328.59L290.769 324.002L285.527 318.76L282.579 310.687L287.757 310.409L287.414 307.579L283.748 308.104L286.492 306.035L289.386 303.355L288.775 300.578L284.487 296.88L282.45 291.07C261.95 274.925 236.737 265.918 210.648 265.417C184.558 264.915 159.018 272.948 137.913 288.293L145.309 291.402L142.544 297.266L137.516 299.539L138.588 307.15L136.562 308.479L134.418 312.145L135.801 317.077L140.646 316.583L139.746 321.729L144.463 320.657L150.23 308.608L150.08 303.977L157.723 301.704L158.924 297.941L166.782 295.326L166.567 290.427L172.324 288.851C172.324 288.851 176.001 285.71 176.826 285.528C178.508 285.513 180.189 285.624 181.854 285.86L186.753 288.272L192.574 286.975L196.862 282.815L203.358 281.958C204.409 282.363 205.541 282.511 206.66 282.387C208.043 282.076 211.773 279.171 211.773 279.171L220.928 282.387L224.809 284.145L225.731 288.304L230.019 287.929L230.855 285.131L234.832 285.989L235.047 288.272L227.21 292.346L233.289 297.395L244.502 300.729L249.862 305.349L256.09 304.545L256.862 301.468L258.952 300.396L250.516 296.451L245.949 296.88L249.304 294.972L244.93 290.995L249.583 289.676L256.433 291.649L259.295 297.995L263.144 300.922L267.432 308.426L274.518 311.502L276.544 320.657L283.855 323.401L284.251 326.51V330.305L287.028 334.925L288.1 337.305L292.999 337.091L294.178 331.881L294.993 328.59Z" stroke="#263238" stroke-linecap="round" stroke-linejoin="round"/>
<path d="M292.388 299.849L292.741 301.446L292.345 306.184L294.039 309.883L297.34 310.322L298.509 315.586L294.875 314.942L297.362 330.1L295.389 336.951L299.334 344.219L303.676 346.749L307.01 361.757L313.195 372.605L319.048 380.624L325.802 380.87L326.788 374.824L327.539 373.924C327.068 368.946 326.291 364.002 325.212 359.12C320.236 336.603 308.833 316.014 292.388 299.849Z" stroke="#263238" stroke-linecap="round" stroke-linejoin="round"/>
<path d="M227.939 312.348L207.839 308.36L199.864 310.429L199.092 316.132L194.954 313.259L189.165 316.004L190.644 325.287L196.433 327.774L198.867 321.707L203.959 324.944L214.218 330.519L217.67 338.194L226.91 345.752L238.134 341.217L236.933 337.122L233.385 332.963L230.362 321.985L232.099 316.658L227.939 312.348Z" stroke="#263238" stroke-linecap="round" stroke-linejoin="round"/>
<path d="M244.266 315.114L239.86 314.932L236.933 318.791L240.664 326.402L244.266 325.598V315.114Z" stroke="#263238" stroke-linecap="round" stroke-linejoin="round"/>
<path d="M271.237 314.664L260.689 311.759L258.009 308.864L255.983 310.194L259.156 315.307L262.415 322.146L266.949 322.886L267.539 321.6L264.109 317.987L271.945 319.166L271.237 314.664Z" stroke="#263238" stroke-linecap="round" stroke-linejoin="round"/>
<path d="M212.481 432.777L211.613 434.139L220.489 434.782L224.68 437.923L230.073 437.312L231.338 433.828L224.713 434.139L212.481 432.777Z" stroke="#263238" stroke-linecap="round" stroke-linejoin="round"/>
<path d="M238.337 432.562L232.881 435.521L234.199 437.558L241.414 435.961L242.304 433.431L239.87 434.267L238.337 432.562Z" stroke="#263238" stroke-linecap="round" stroke-linejoin="round"/>
<path d="M319.724 303.922C317.545 303.922 315.387 304.352 313.374 305.187C311.361 306.021 309.533 307.245 307.994 308.787C306.454 310.33 305.234 312.161 304.403 314.175C303.572 316.189 303.147 318.348 303.151 320.527C303.151 329.682 319.724 348.153 319.724 348.153C319.724 348.153 336.308 329.682 336.308 320.527C336.311 318.348 335.884 316.189 335.052 314.174C334.219 312.16 332.998 310.329 331.458 308.787C329.918 307.245 328.089 306.021 326.075 305.186C324.062 304.352 321.904 303.922 319.724 303.922ZM319.724 327.795C318.277 327.802 316.862 327.378 315.656 326.578C314.451 325.779 313.51 324.639 312.953 323.304C312.397 321.968 312.25 320.498 312.53 319.079C312.811 317.66 313.507 316.356 314.53 315.333C315.553 314.31 316.856 313.614 318.276 313.333C319.695 313.053 321.165 313.2 322.5 313.757C323.836 314.313 324.976 315.254 325.775 316.459C326.575 317.665 326.999 319.081 326.992 320.527C326.987 322.453 326.219 324.298 324.857 325.66C323.495 327.022 321.65 327.79 319.724 327.795Z" fill="#263238" stroke="#263238" stroke-miterlimit="10"/>
<path d="M191.116 346.47C187.281 346.47 183.602 347.993 180.89 350.705C178.178 353.417 176.655 357.096 176.655 360.931C176.655 368.917 191.116 385.03 191.116 385.03C191.116 385.03 205.577 368.95 205.577 360.931C205.577 357.096 204.054 353.417 201.342 350.705C198.63 347.993 194.951 346.47 191.116 346.47ZM191.116 367.299C189.857 367.299 188.626 366.925 187.578 366.226C186.531 365.526 185.715 364.531 185.233 363.368C184.751 362.204 184.625 360.924 184.871 359.689C185.116 358.454 185.723 357.319 186.613 356.428C187.504 355.538 188.639 354.931 189.874 354.686C191.109 354.44 192.389 354.566 193.553 355.048C194.716 355.53 195.711 356.346 196.411 357.393C197.11 358.44 197.484 359.672 197.484 360.931C197.484 362.62 196.813 364.239 195.619 365.434C194.425 366.628 192.805 367.299 191.116 367.299Z" fill="#263238" stroke="#263238" stroke-miterlimit="10"/>
<path d="M245.799 459.244C243.87 459.244 242.02 460.01 240.656 461.372C239.291 462.735 238.523 464.584 238.52 466.512C238.52 470.532 245.799 478.637 245.799 478.637C245.799 478.637 253.067 470.532 253.067 466.512C253.064 464.586 252.298 462.738 250.935 461.376C249.573 460.014 247.726 459.247 245.799 459.244ZM245.799 469.718C245.163 469.718 244.541 469.529 244.012 469.176C243.483 468.822 243.071 468.32 242.828 467.732C242.584 467.145 242.521 466.498 242.645 465.874C242.769 465.25 243.075 464.677 243.525 464.228C243.975 463.778 244.548 463.471 245.172 463.347C245.795 463.223 246.442 463.287 247.03 463.53C247.617 463.774 248.12 464.186 248.473 464.715C248.826 465.244 249.015 465.866 249.015 466.502C249.015 466.924 248.932 467.342 248.77 467.732C248.608 468.122 248.372 468.477 248.073 468.776C247.774 469.074 247.42 469.311 247.03 469.473C246.639 469.634 246.221 469.718 245.799 469.718Z" fill="#263238" stroke="#263238" stroke-miterlimit="10"/>
<path d="M155.343 392.084C153.415 392.087 151.566 392.855 150.203 394.22C148.841 395.584 148.075 397.434 148.075 399.363C148.075 403.383 155.343 411.487 155.343 411.487C155.343 411.487 162.622 403.383 162.622 399.363C162.622 397.432 161.855 395.581 160.49 394.216C159.125 392.851 157.274 392.084 155.343 392.084ZM155.343 402.568C154.707 402.568 154.086 402.38 153.557 402.026C153.028 401.673 152.616 401.17 152.372 400.583C152.129 399.995 152.065 399.349 152.189 398.725C152.313 398.101 152.62 397.528 153.069 397.078C153.519 396.628 154.092 396.322 154.716 396.198C155.34 396.074 155.986 396.138 156.574 396.381C157.162 396.624 157.664 397.037 158.017 397.565C158.371 398.094 158.559 398.716 158.559 399.352C158.559 400.205 158.221 401.023 157.617 401.626C157.014 402.229 156.196 402.568 155.343 402.568Z" fill="#263238" stroke="#263238" stroke-miterlimit="10"/>
<path d="M181.071 422.7C180.116 422.7 179.17 422.889 178.288 423.254C177.405 423.62 176.603 424.157 175.928 424.833C175.253 425.509 174.718 426.311 174.353 427.194C173.989 428.077 173.802 429.024 173.803 429.979C173.803 433.999 181.071 442.103 181.071 442.103C181.071 442.103 188.35 433.999 188.35 429.979C188.35 428.049 187.583 426.197 186.218 424.832C184.853 423.467 183.002 422.7 181.071 422.7ZM181.071 433.184C180.435 433.184 179.814 432.996 179.285 432.642C178.756 432.289 178.344 431.787 178.1 431.199C177.857 430.611 177.793 429.965 177.917 429.341C178.041 428.717 178.348 428.144 178.797 427.694C179.247 427.245 179.82 426.938 180.444 426.814C181.068 426.69 181.714 426.754 182.302 426.997C182.89 427.241 183.392 427.653 183.745 428.182C184.099 428.711 184.287 429.332 184.287 429.968C184.287 430.821 183.949 431.639 183.345 432.242C182.742 432.846 181.924 433.184 181.071 433.184Z" fill="#263238" stroke="#263238" stroke-miterlimit="10"/>
<path d="M271.43 436.443C270.297 436.443 269.175 436.667 268.128 437.1C267.081 437.534 266.13 438.17 265.328 438.971C264.527 439.772 263.891 440.724 263.458 441.771C263.024 442.818 262.801 443.94 262.801 445.073C262.801 449.833 271.43 459.438 271.43 459.438C271.43 459.438 280.006 449.79 280.006 445.073C280.013 443.942 279.797 442.821 279.369 441.775C278.941 440.728 278.311 439.776 277.514 438.974C276.717 438.172 275.769 437.536 274.725 437.101C273.681 436.667 272.561 436.443 271.43 436.443ZM271.43 448.868C270.677 448.87 269.94 448.648 269.312 448.231C268.685 447.814 268.195 447.219 267.906 446.524C267.616 445.828 267.54 445.062 267.687 444.322C267.833 443.583 268.196 442.904 268.729 442.371C269.262 441.838 269.941 441.476 270.68 441.329C271.419 441.183 272.185 441.259 272.881 441.548C273.577 441.838 274.171 442.327 274.588 442.955C275.006 443.582 275.227 444.319 275.225 445.073C275.225 445.571 275.127 446.065 274.936 446.525C274.746 446.986 274.466 447.404 274.114 447.756C273.761 448.109 273.343 448.388 272.883 448.579C272.422 448.77 271.929 448.868 271.43 448.868Z" fill="#263238" stroke="#263238" stroke-miterlimit="10"/>
<path d="M270.798 271.559C268.768 271.559 266.821 272.365 265.385 273.8C263.95 275.236 263.144 277.183 263.144 279.213C263.144 283.501 270.798 291.98 270.798 291.98C270.798 291.98 278.462 283.404 278.462 279.213C278.46 277.182 277.651 275.235 276.214 273.8C274.777 272.365 272.829 271.559 270.798 271.559ZM270.798 282.589C270.13 282.589 269.477 282.391 268.922 282.02C268.366 281.649 267.933 281.122 267.678 280.505C267.422 279.888 267.355 279.209 267.486 278.554C267.616 277.899 267.938 277.297 268.41 276.825C268.882 276.353 269.484 276.031 270.139 275.901C270.794 275.77 271.473 275.837 272.09 276.093C272.707 276.348 273.234 276.781 273.605 277.337C273.976 277.892 274.174 278.545 274.174 279.213C274.174 280.108 273.819 280.967 273.185 281.6C272.552 282.234 271.693 282.589 270.798 282.589Z" fill="#263238" stroke="#263238" stroke-miterlimit="10"/>
<path d="M139.703 319.456C138.697 319.455 137.7 319.652 136.771 320.036C135.841 320.42 134.996 320.983 134.284 321.694C133.572 322.405 133.007 323.249 132.622 324.179C132.236 325.108 132.038 326.104 132.038 327.11C132.038 331.345 139.703 339.878 139.703 339.878C139.703 339.878 147.357 331.302 147.357 327.11C147.357 325.08 146.551 323.133 145.115 321.698C143.68 320.262 141.733 319.456 139.703 319.456ZM139.703 330.487C139.035 330.489 138.381 330.293 137.824 329.923C137.267 329.553 136.833 329.027 136.576 328.41C136.318 327.793 136.25 327.114 136.379 326.458C136.508 325.802 136.829 325.2 137.301 324.726C137.772 324.253 138.374 323.93 139.029 323.799C139.685 323.668 140.364 323.734 140.982 323.989C141.6 324.245 142.128 324.677 142.499 325.233C142.871 325.789 143.069 326.442 143.069 327.11C143.069 328.004 142.715 328.861 142.084 329.494C141.453 330.127 140.597 330.484 139.703 330.487Z" fill="#263238" stroke="#263238" stroke-miterlimit="10"/>
<path d="M230.576 154.507C230.576 154.507 229.912 214.861 229.912 224.83C229.912 234.8 229.086 244.448 229.086 244.448C229.086 244.448 232.077 246.592 231.573 249.1C231.015 251.227 230.235 253.29 229.247 255.254C228.104 254.996 226.925 254.941 225.763 255.093C224.595 255.425 217.616 258.577 216.447 258.577C215.279 258.577 214.786 259.574 214.454 256.433C214.092 253.622 213.98 250.784 214.121 247.953C214.329 245.427 214.72 242.919 215.29 240.449L208.3 164.144L206.639 238.455C206.639 238.455 206.971 242.947 207.475 243.815C208.135 245.005 208.585 246.3 208.804 247.643C208.804 248.468 207.303 256.283 206.66 256.615C206.017 256.947 204.002 258.116 204.002 258.116C204.002 258.116 202.672 257.784 200.839 255.457C199.006 253.131 194.697 253.313 193.86 253.624L193.024 253.957C193.024 253.957 190.537 250.966 190.033 248.8C189.53 246.635 192.863 246.474 192.692 240.653C192.52 234.832 187.525 185.456 187.525 185.456L186.356 152.224L230.909 150.895L230.576 154.507Z" fill="#263238" stroke="#263238" stroke-miterlimit="10"/>
<path d="M213.124 77.3662L195.34 78.5347L194.675 154.507C194.675 154.507 196.005 155.676 206.971 155.837C217.938 155.997 220.275 154.679 220.275 154.679L213.124 77.3662Z" fill="white" stroke="#263238" stroke-miterlimit="10"/>
<path d="M212.031 39.9536C212.031 39.9536 216.383 46.0962 216.319 47.0288C216.196 47.9466 216.017 48.8559 215.783 49.7517C215.783 49.7517 220.521 54.64 220.071 55.0367L217.434 57.2878C217.434 57.2878 217.509 61.8653 217.509 62.5728C217.509 63.2803 218.517 65.0598 218.206 65.7888C217.846 66.5844 217.349 67.3103 216.737 67.9328C216.19 68.3938 212.224 68.3187 212.224 68.3187L212.149 74.6114C212.149 74.6114 212.846 78.5778 212.224 79.9714C211.602 81.365 209.812 82.4584 205.31 82.6942C200.807 82.9301 198.61 81.3971 197.291 80.3037C195.972 79.2103 196.144 69.1763 196.058 67.6219C195.972 66.0675 195.908 63.1088 195.051 61.7903C194.193 60.4717 188.619 51.0703 187.675 48.7333C186.732 46.3963 186.657 43.9951 188.447 41.9047C190.237 39.8143 192.488 38.8709 192.735 37.7024C192.982 36.5339 192.735 35.3762 194.439 34.8295C195.68 34.5032 196.973 34.4231 198.245 34.5936C198.245 34.5936 201.515 30.6379 203.219 31.0989L204.934 31.5599C204.934 31.5599 209.673 30.2413 212.16 32.3424C214.647 34.4435 215.14 37.7775 212.031 39.9536Z" fill="white" stroke="#263238" stroke-miterlimit="10"/>
<path d="M212.92 50.9416C212.92 51.9278 213.221 52.7318 213.606 52.7318C213.992 52.7318 214.293 51.9278 214.293 50.9416C214.293 49.9553 213.982 49.1406 213.606 49.1406C213.231 49.1406 212.92 49.9446 212.92 50.9416Z" fill="#263238" stroke="#263238" stroke-miterlimit="10"/>
<path d="M192.681 37.7024C192.906 36.5339 192.681 35.3762 194.386 34.8295C195.627 34.5032 196.92 34.4231 198.191 34.5936C198.191 34.5936 201.461 30.6379 203.165 31.0989L204.881 31.5599C204.881 31.5599 209.619 30.2413 212.106 32.3424C214.593 34.4435 215.14 37.7775 212.031 39.9536C212.031 39.9536 203.455 40.8863 204.527 42.4407C205.599 43.9951 206.081 45.2386 205.234 45.6567C204.388 46.0747 200.496 48.0579 200.882 48.9906C201.268 49.9232 201.654 52.4103 201.118 52.5711C200.582 52.7319 200.646 52.4103 198.974 51.1667C197.302 49.9232 195.393 50.8559 195.168 53.3107C195.082 54.2041 195.294 55.1009 195.771 55.8611C196.248 56.6213 196.963 57.2022 197.805 57.513C198.663 57.6631 198.191 60.729 196.562 61.8653C196.188 62.1141 195.785 62.3158 195.361 62.4656C195.269 62.2007 195.151 61.9457 195.008 61.7045C194.15 60.3859 188.576 50.9845 187.632 48.6475C186.689 46.3106 186.614 43.9093 188.404 41.8189C190.194 39.7285 192.445 38.8709 192.681 37.7024Z" fill="#263238" stroke="#263238" stroke-miterlimit="10"/>
<path d="M216.576 59.6895C216.576 59.6895 213.081 60.3113 211.066 57.835" stroke="#263238" stroke-miterlimit="10"/>
<path d="M212.181 68.3186L205.031 66.0674L212.031 73.1319L212.181 68.3186Z" fill="#263238" stroke="#263238" stroke-miterlimit="10"/>
<path d="M214.593 46.9857C214.593 46.9857 212.063 45.6028 210.594 47.6825" stroke="#263238" stroke-miterlimit="10"/>
<path d="M231.166 106.31C231.166 106.31 240.868 122.562 241.136 125.703C241.404 128.844 236.022 139.639 234.446 139.993C232.871 140.346 228.411 135.276 227.897 133.175C227.382 131.074 226.578 107.361 227.5 105.303C228.422 103.244 231.166 106.31 231.166 106.31Z" fill="#263238" stroke="#263238" stroke-miterlimit="10"/>
<path d="M215.075 77.1844L224.38 77.892C224.38 77.892 229.504 76.702 231.048 77.1844C232.592 77.6668 254.535 86.1249 256.926 87.7972C259.317 89.4696 258.952 95.5371 258.352 98.0456C258.146 98.9207 257.664 99.7061 256.976 100.285C256.289 100.865 255.433 101.207 254.535 101.262C253.463 101.379 231.295 99.9537 231.295 99.9537L237.008 158.013L225.088 161.872L216.63 162.944L212.449 90.5737L215.075 77.1844Z" fill="#91B3FA" stroke="#263238" stroke-miterlimit="10"/>
<path d="M212.031 73.1426L215.075 77.184C215.075 77.184 215.429 83.2623 214.603 85.76C214.02 87.4441 213.303 89.0788 212.459 90.6483L208.643 81.8258C210.28 79.1561 211.427 76.2155 212.031 73.1426Z" fill="#91B3FA" stroke="#263238" stroke-miterlimit="10"/>
<path d="M197.28 92.8887L198.352 163.201C198.352 163.201 187.868 162.022 184.416 160.575C182.449 159.753 180.524 158.834 178.649 157.82C178.649 157.82 182.058 132.092 182.186 130.034C182.315 127.975 182.315 126.228 182.315 126.228C182.315 126.228 174.586 128.983 171.702 128.072C168.818 127.161 168.422 124.138 168.69 120.332C168.842 118.227 168.864 116.115 168.754 114.007C168.754 113.353 169.537 102.494 172.688 94.3681C175.84 86.2423 173.932 85.985 176.162 84.5485C178.391 83.1121 194.643 77.334 194.643 77.334L196.476 81.1396L197.28 92.8887Z" fill="#91B3FA" stroke="#263238" stroke-miterlimit="10"/>
<path d="M184.899 81.2686C184.899 81.2686 187.257 109.055 184.502 118.231L180.214 118.37C180.482 121.586 182.433 115.873 182.958 98.442C183.183 90.938 179.817 82.973 179.817 82.973C181.467 82.28 183.165 81.7103 184.899 81.2686Z" fill="#263238" stroke="#263238" stroke-miterlimit="10"/>
<path d="M196.358 73.5716C196.358 73.5716 197.913 77.5059 198.856 79.5319C199.799 81.558 200.496 82.8766 200.496 82.8766L197.28 92.8891C195.941 89.1846 194.954 85.3621 194.332 81.4723C193.85 76.9377 193.421 77.6345 193.421 77.6345C193.421 77.6345 195.522 72.7355 196.358 73.5716Z" fill="#91B3FA" stroke="#263238" stroke-miterlimit="10"/>
<path d="M228.668 60.4607C227.705 60.1314 226.783 59.6888 225.924 59.1422C225.206 58.5526 223.78 56.2799 223.298 55.8083C222.815 55.3366 220.457 56.162 220.082 55.0364C219.706 53.9108 219.438 52.7531 220.853 53.0854C222.252 53.3366 223.667 53.487 225.088 53.5356L222.847 46.2139H233.128C233.128 46.2139 236.108 56.355 236.108 57.1804C236.024 58.1063 235.867 59.0241 235.636 59.9247C235.636 59.9247 249.701 75.6617 252.681 79.5959C255.661 83.5302 259.36 88.9009 259.724 90.927C260.089 92.9531 259.006 99.3851 256.508 100.221C254.01 101.057 251.738 100.103 249.122 97.6056C246.506 95.1078 238.627 79.0063 238.273 78.406C237.92 77.8057 231.841 62.787 231.477 62.326C230.596 61.6244 229.657 61.0003 228.668 60.4607Z" fill="white" stroke="#263238" stroke-miterlimit="10"/>
<path d="M223.437 77.9886C223.437 77.9886 226.449 97.6598 229.73 107.361C233.01 117.063 235.754 123.216 235.754 123.216L234.318 131.792C230.442 124.78 227.154 117.458 224.488 109.902C220.028 97.3167 217.541 77.6562 217.541 77.6562L223.437 77.9886Z" fill="#263238" stroke="#263238" stroke-miterlimit="10"/>
<path d="M197.194 96.8341L200.732 128.233L180.557 125.842L175.293 94.5508L197.194 96.8341Z" fill="white" stroke="#263238" stroke-miterlimit="10"/>
<path d="M194.6 96.9946L201.021 127.933L180.696 127.407L172.57 96.7373L194.6 96.9946Z" fill="white" stroke="#263238" stroke-miterlimit="10"/>
<path d="M174.929 114.833C177.142 116.027 179.418 117.1 181.747 118.049C182.797 118.467 183.924 118.661 185.054 118.616C186.184 118.572 187.293 118.291 188.307 117.792C189.455 117.265 190.481 116.506 191.32 115.562C191.32 115.562 191.974 112.024 192.756 111.499C193.539 110.974 195.383 110.577 196.165 109.355C196.948 108.133 197.344 108.283 197.612 109.484C197.88 110.684 198.138 111.981 197.344 112.507C196.884 112.809 196.557 113.278 196.433 113.815C196.433 113.815 196.562 114.736 197.612 114.34C198.663 113.943 199.317 112.635 200.367 113.032C200.598 113.07 200.817 113.162 201.005 113.301C201.193 113.439 201.346 113.621 201.451 113.83C201.555 114.039 201.609 114.271 201.607 114.504C201.605 114.738 201.548 114.969 201.439 115.176C201.14 115.819 200.781 116.433 200.367 117.009C200.367 117.009 201.675 120.032 201.021 121.994C200.367 123.956 197.087 125.146 195.511 125.274C193.935 125.403 189.487 125.531 189.487 125.531C189.487 125.531 183.055 127.675 179.131 128.812C175.208 129.948 174.018 129.734 171.788 128.029C170.641 127.143 169.797 125.922 169.375 124.535C168.952 123.149 168.971 121.665 169.429 120.289C170.341 117.191 171.391 115.487 174.929 114.833Z" fill="white" stroke="#263238" stroke-miterlimit="10"/>
<path d="M228.25 252.767C228.25 252.767 230.394 257.912 230.909 258.909C232.016 260.698 233.562 262.175 235.401 263.197C237.898 264.687 240.889 265.684 240.225 267.014C239.56 268.343 236.569 268.675 234.071 269.008C231.574 269.34 225.763 268.343 223.426 268.343C221.089 268.343 215.922 267.517 215.451 266.349C214.979 265.181 215.622 256.873 215.622 256.873C215.622 256.873 219.439 252.595 228.25 252.767Z" fill="white" stroke="#263238" stroke-miterlimit="10"/>
<path d="M215.504 266.392C215.319 265.497 215.258 264.581 215.322 263.669L221.314 265.448C224.98 266.367 228.717 266.977 232.485 267.271C235.087 267.403 237.689 266.998 240.128 266.081C240.25 266.208 240.331 266.37 240.357 266.545C240.384 266.72 240.357 266.898 240.278 267.056C239.613 268.386 236.623 268.718 234.125 269.05C231.627 269.383 225.817 268.386 223.48 268.386C221.143 268.386 215.954 267.56 215.504 266.392Z" fill="white" stroke="#263238" stroke-miterlimit="10"/>
<path d="M204.494 257.28C204.494 257.28 204.001 265.856 203.883 266.478C203.765 267.1 203.154 267.55 201.461 267.754C199.767 267.957 199.027 267.872 198.062 268.343C197.098 268.815 195.029 269.855 189.208 269.855C183.387 269.855 181.564 268.783 182.293 266.714C183.022 264.645 188.597 260.539 189.937 258.91C191.053 257.305 191.997 255.587 192.756 253.785C192.756 253.785 194.418 252.392 197.698 253.089C200.978 253.785 201.825 255.072 202.19 255.651C202.873 256.305 203.65 256.854 204.494 257.28Z" fill="white" stroke="#263238" stroke-miterlimit="10"/>
<path d="M182.272 266.757C182.321 266.619 182.382 266.487 182.454 266.36C183.02 266.963 183.697 267.45 184.448 267.796C186.592 268.868 195.254 268.268 197.194 267.218C199.412 266.241 201.698 265.428 204.034 264.784C203.969 265.706 203.916 266.392 203.884 266.542C203.766 267.121 203.155 267.614 201.461 267.818C199.767 268.022 199.027 267.936 198.063 268.408C197.098 268.879 195.029 269.919 189.208 269.919C183.387 269.919 181.565 268.847 182.272 266.757Z" fill="white" stroke="#263238" stroke-miterlimit="10"/>
<path d="M220.114 47.8544L228.047 47.3291V53.536L220.114 53.0107C219.739 53.0107 219.428 51.8637 219.428 50.4379C219.428 49.0121 219.792 47.8544 220.114 47.8544Z" fill="white" stroke="#263238" stroke-miterlimit="10"/>
<path d="M217.938 47.2324H220.435C220.5 47.2329 220.564 47.2492 220.621 47.28C220.678 47.3108 220.727 47.3551 220.763 47.409C220.799 47.463 220.821 47.5249 220.827 47.5895C220.834 47.654 220.824 47.7191 220.8 47.7791C220.526 48.6379 220.399 49.5367 220.425 50.4377C220.398 51.3352 220.525 52.2307 220.8 53.0855C220.824 53.1456 220.834 53.2107 220.827 53.2752C220.821 53.3397 220.799 53.4017 220.763 53.4556C220.727 53.5096 220.678 53.5539 220.621 53.5847C220.564 53.6155 220.5 53.6318 220.435 53.6323H217.938C217.466 53.6323 217.08 52.1958 217.08 50.4163C217.08 48.6367 217.466 47.2324 217.938 47.2324Z" fill="white" stroke="#263238" stroke-miterlimit="10"/>
<path d="M225.806 46.214L243.033 45.3564V55.519L225.806 54.6721C225.184 54.6721 224.734 52.7747 224.734 50.4484C224.734 48.1222 225.152 46.214 225.806 46.214Z" fill="white" stroke="#263238" stroke-miterlimit="10"/>
<path d="M241.682 50.4377C241.682 53.2356 242.293 55.519 243.033 55.519C243.773 55.519 244.384 53.2356 244.384 50.4377C244.384 47.6398 243.783 45.3564 243.033 45.3564C242.282 45.3564 241.682 47.6291 241.682 50.4377Z" fill="white" stroke="#263238" stroke-miterlimit="10"/>
<path d="M217.101 47.8544L225.034 47.3291V53.536L217.101 53.0107C216.726 53.0107 216.415 51.8637 216.415 50.4379C216.415 49.0121 216.726 47.8544 217.101 47.8544Z" fill="#263238" stroke="#263238" stroke-miterlimit="10"/>
<path d="M214.925 47.2324H217.423C217.488 47.2329 217.551 47.2492 217.608 47.28C217.665 47.3108 217.714 47.3551 217.75 47.409C217.786 47.463 217.808 47.5249 217.815 47.5895C217.821 47.654 217.812 47.7191 217.787 47.7791C217.518 48.6387 217.395 49.5374 217.423 50.4377C217.394 51.3346 217.517 52.2298 217.787 53.0855C217.812 53.1456 217.821 53.2107 217.815 53.2752C217.808 53.3397 217.786 53.4017 217.75 53.4556C217.714 53.5096 217.665 53.5539 217.608 53.5847C217.551 53.6155 217.488 53.6318 217.423 53.6323H214.925C214.453 53.6323 214.067 52.1958 214.067 50.4163C214.067 48.6367 214.432 47.2324 214.925 47.2324Z" fill="white" stroke="#263238" stroke-miterlimit="10"/>
<path d="M222.794 46.214L240.021 45.3564V55.519L222.794 54.6721C222.183 54.6721 221.722 52.7747 221.722 50.4484C221.722 48.1222 222.183 46.214 222.794 46.214Z" fill="#263238" stroke="#263238" stroke-miterlimit="10"/>
<path d="M238.67 50.4377C238.67 53.2356 239.281 55.519 240.021 55.519C240.76 55.519 241.371 53.2356 241.371 50.4377C241.371 47.6398 240.771 45.3564 240.021 45.3564C239.27 45.3564 238.67 47.6291 238.67 50.4377Z" fill="white" stroke="#263238" stroke-miterlimit="10"/>
<path d="M232.785 45.6035C232.785 45.6035 230.565 43.2129 229.74 43.2129C228.915 43.2129 227.596 45.3569 227.36 45.6035C227.124 45.85 227.274 46.2574 228.175 46.3431C228.86 46.3207 229.523 46.0888 230.072 45.6785L232.785 45.6035Z" fill="white" stroke="#263238" stroke-miterlimit="10"/>
<path d="M229.74 43.2128C228.611 42.9222 227.454 42.7568 226.288 42.7197C225.624 42.8805 224.391 45.6784 224.638 46.0965C224.884 46.5146 227.36 45.6034 227.36 45.6034C227.36 45.6034 229.001 43.1271 229.74 43.2128Z" fill="white" stroke="#263238" stroke-miterlimit="10"/>
<path d="M225.709 42.9662C225.709 42.9662 224.391 42.1407 223.737 42.7196C223.083 43.2985 221.679 45.271 222.011 46.0106C222.343 46.7503 224.637 46.0964 224.637 46.0964C224.637 46.0964 225.152 43.2127 225.709 42.9662Z" fill="white" stroke="#263238" stroke-miterlimit="10"/>
<path d="M223.083 43.2125C223.083 43.2125 221.432 42.5586 220.853 43.2125C220.274 43.8664 218.806 45.9247 219.781 46.4285C220.757 46.9323 221.754 45.4423 221.754 45.4423L223.083 43.2125Z" fill="white" stroke="#263238" stroke-miterlimit="10"/>
</g>
<defs>
<clipPath id="clip0_3312_12236">
<rect width="536" height="536" fill="white" transform="translate(-60)"/>
</clipPath>
</defs>
</svg>
