<svg width="402" height="267" viewBox="0 0 402 267" fill="none" xmlns="http://www.w3.org/2000/svg">
<path d="M345.118 16H386C394.284 16 401 22.7157 401 31V251C401 259.284 394.284 266 386 266H16C7.71574 266 1 259.284 1 251V31C1 22.7157 7.71573 16 16 16H193.941" stroke="black" stroke-width="2"/>
<path d="M284.5 16H299" stroke="black" stroke-width="2"/>
<path d="M310.2 30.8675H302.733C300.671 30.8675 299 29.1959 299 27.134L299 4.73342C299 2.67151 300.672 1 302.734 1H319.534C321.596 1 323.268 2.67152 323.268 4.73344V12.2003M305.534 8.46689H316.734M305.534 14.0671H316.734M305.534 19.6672H311.134M315.801 25.7201L323.72 17.8003L329 23.0802L321.08 31H315.801V25.7201Z" stroke="black" stroke-width="2" stroke-linecap="round" stroke-linejoin="round"/>
<path d="M199.864 8.7C199.211 8.7 198.884 8.36667 198.884 7.7C198.884 7.04667 199.211 6.72 199.864 6.72C200.504 6.72 200.824 7.04667 200.824 7.7C200.824 8.36667 200.504 8.7 199.864 8.7ZM202.404 8.7C201.751 8.7 201.424 8.36667 201.424 7.7C201.424 7.04667 201.751 6.72 202.404 6.72C203.044 6.72 203.364 7.04667 203.364 7.7C203.364 8.36667 203.044 8.7 202.404 8.7ZM206.124 18.38H207.444V20H205.924C204.551 20 203.564 19.4933 202.964 18.48C202.324 19.0933 201.531 19.4 200.584 19.4C199.411 19.4 198.478 18.96 197.784 18.08C197.211 17.3333 196.924 16.42 196.924 15.34C196.924 14.0467 197.318 13.0067 198.104 12.22C198.771 11.54 199.584 11.2 200.544 11.2C201.278 11.2 201.911 11.3867 202.444 11.76V10.9L204.184 9.98V16.38C204.184 17.7133 204.831 18.38 206.124 18.38ZM202.444 13.62C201.951 13.0733 201.344 12.8 200.624 12.8C200.038 12.8 199.558 13.04 199.184 13.52C198.811 13.9867 198.624 14.6 198.624 15.36C198.624 16.1333 198.811 16.7533 199.184 17.22C199.558 17.6867 200.044 17.92 200.644 17.92C201.391 17.92 202.004 17.6133 202.484 17C202.458 16.76 202.444 16.5733 202.444 16.44V13.62ZM210.192 11.54C210.205 11.54 210.225 11.54 210.252 11.54C210.278 11.54 210.298 11.54 210.312 11.54C211.818 11.54 213.038 12.0067 213.972 12.94C214.825 13.78 215.252 14.8533 215.252 16.16V16.5C215.252 17.6467 214.898 18.54 214.192 19.18C213.565 19.7267 212.758 20 211.772 20H206.252V18.38H211.612C212.892 18.38 213.532 17.7067 213.532 16.36V16.18C213.532 15.1933 213.145 14.4333 212.372 13.9C211.758 13.4867 211.012 13.28 210.132 13.28C209.425 13.28 208.712 13.4067 207.992 13.66V11.96L212.372 7.1H214.132L210.192 11.54ZM223.161 18.38H224.481V20H222.961C222.281 20 221.694 19.8667 221.201 19.6C221.081 20.92 220.621 21.9733 219.821 22.76C219.088 23.48 218.168 23.84 217.061 23.84C216.261 23.84 215.481 23.64 214.721 23.24V21.74C215.401 22.1133 216.081 22.3 216.761 22.3C217.614 22.3 218.281 22.0133 218.761 21.44C219.241 20.8667 219.481 20.0733 219.481 19.06V12.24L221.201 11.32V11.34L221.221 11.32V16.78C221.341 17.8467 221.988 18.38 223.161 18.38ZM234.283 7.06C233.696 7.06 233.403 6.76 233.403 6.16C233.403 5.57333 233.696 5.28 234.283 5.28C234.869 5.28 235.163 5.57333 235.163 6.16C235.163 6.76 234.869 7.06 234.283 7.06ZM233.023 9.44C232.369 9.44 232.043 9.10667 232.043 8.44C232.043 7.78667 232.369 7.46 233.023 7.46C233.663 7.46 233.983 7.78667 233.983 8.44C233.983 9.10667 233.663 9.44 233.023 9.44ZM235.563 9.44C234.909 9.44 234.583 9.10667 234.583 8.44C234.583 7.78667 234.909 7.46 235.563 7.46C236.203 7.46 236.523 7.78667 236.523 8.44C236.523 9.10667 236.203 9.44 235.563 9.44ZM223.283 20V18.38H225.083C226.376 18.38 227.023 17.7133 227.023 16.38V13.58L228.743 12.66V16.38C228.743 17.7133 229.396 18.38 230.703 18.38H231.623C232.929 18.38 233.583 17.7133 233.583 16.38V12.9L235.303 12V16.38C235.303 17.7133 235.949 18.38 237.243 18.38H238.183C239.489 18.38 240.143 17.7133 240.143 16.38V12.24L241.863 11.32V16.2C241.863 17.6533 242.556 18.38 243.943 18.38H245.603V20H243.803C242.603 20 241.689 19.5933 241.063 18.78C240.503 19.58 239.629 19.9867 238.443 20H237.063C235.889 20 235.016 19.6067 234.443 18.82C233.869 19.5933 233.016 19.9867 231.883 20H230.503C229.356 20 228.483 19.6067 227.883 18.82C227.309 19.6067 226.436 20 225.263 20H223.283ZM244.396 20V18.38H245.456C246.843 18.38 247.536 17.6533 247.536 16.2V8.02L249.276 7.1V16.22C249.276 17.4067 248.923 18.3467 248.216 19.04C247.549 19.68 246.676 20 245.596 20H244.396ZM252.87 20V8.02L254.59 7.1V20H252.87ZM267.491 10.98C266.837 10.98 266.511 10.6467 266.511 9.98C266.511 9.32667 266.837 9 267.491 9C268.131 9 268.451 9.32667 268.451 9.98C268.451 10.6467 268.131 10.98 267.491 10.98ZM274.791 18.38H276.111V20H274.591C273.897 20 273.297 19.86 272.791 19.58C272.631 20.94 272.037 22 271.011 22.76C270.091 23.4533 268.951 23.8 267.591 23.8C265.857 23.8 264.511 23.1867 263.551 21.96C262.817 21.0133 262.451 19.8933 262.451 18.6C262.451 17.48 262.731 16.52 263.291 15.72L264.951 15.36C264.351 16.3067 264.051 17.3267 264.051 18.42C264.051 19.54 264.397 20.46 265.091 21.18C265.744 21.8467 266.577 22.18 267.591 22.18C268.764 22.18 269.671 21.84 270.311 21.16C270.844 20.5867 271.111 19.84 271.111 18.92V12.24L272.831 11.32V16.38C272.831 17.7133 273.484 18.38 274.791 18.38ZM285.684 18.38V20H274.904V18.38H278.364C277.711 17.54 277.384 16.5067 277.384 15.28C277.384 13.92 277.851 12.84 278.784 12.04C279.544 11.4 280.424 11.0733 281.424 11.06C282.837 11.06 283.937 11.6267 284.724 12.76V14.38C283.871 13.2333 282.837 12.66 281.624 12.66C280.864 12.66 280.251 12.9067 279.784 13.4C279.331 13.88 279.104 14.5267 279.104 15.34C279.104 16.26 279.377 17 279.924 17.56C280.484 18.1067 281.224 18.38 282.144 18.38H285.684Z" fill="black"/>
</svg>
