<svg width="30" height="30" viewBox="0 0 30 30" fill="none" xmlns="http://www.w3.org/2000/svg">
<path d="M26.7237 7.02629C26.604 6.77785 26.4658 6.54584 26.3064 6.32634C25.9209 5.79575 25.4543 5.32914 24.9237 4.94364C23.2807 3.75 20.9372 3.75 16.25 3.75H13.75C9.06283 3.75 6.71925 3.75 5.07634 4.94364C4.54575 5.32914 4.07914 5.79575 3.69364 6.32634C3.52691 6.55583 3.38347 6.79899 3.26006 7.0603C2.5 8.66971 2.5 10.9676 2.5 15C2.5 19.6872 2.5 22.0307 3.69364 23.6737C4.07914 24.2042 4.54575 24.6709 5.07634 25.0564C6.71925 26.25 9.06283 26.25 13.75 26.25H16.25C20.9372 26.25 23.2807 26.25 24.9237 25.0564C25.4543 24.6709 25.9209 24.2042 26.3064 23.6737C27.5 22.0307 27.5 19.6872 27.5 15C27.5 10.9391 27.5 8.63732 26.7237 7.02629ZM3.26006 7.0603L3.75 7.5L6.16117 9.91117C10.3278 14.0778 12.4112 16.1612 15 16.1612C17.5888 16.1612 19.6722 14.0778 23.8388 9.91117L26.25 7.5L26.7237 7.02629" stroke="black" stroke-width="2"/>
</svg>
