<svg width="100" height="100" viewBox="0 0 100 100" fill="none" xmlns="http://www.w3.org/2000/svg">
<path d="M66.6666 37.4987H65.9166C65.9166 46.2892 58.7905 53.4154 49.9999 53.4154V54.1654V54.9154C59.6189 54.9154 67.4166 47.1177 67.4166 37.4987H66.6666ZM49.9999 54.1654V53.4154C41.2094 53.4154 34.0833 46.2892 34.0833 37.4987H33.3333H32.5833C32.5833 47.1177 40.381 54.9154 49.9999 54.9154V54.1654ZM33.3333 37.4987H34.0833C34.0833 28.7082 41.2094 21.582 49.9999 21.582V20.832V20.082C40.381 20.082 32.5833 27.8797 32.5833 37.4987H33.3333ZM49.9999 20.832V21.582C58.7905 21.582 65.9166 28.7082 65.9166 37.4987H66.6666H67.4166C67.4166 27.8797 59.6189 20.082 49.9999 20.082V20.832ZM37.4999 66.6654V67.4154H62.4999V66.6654V65.9154H37.4999V66.6654ZM8.33325 49.9987H9.08325C9.08325 27.401 27.4023 9.08203 49.9999 9.08203V8.33203V7.58203C26.5738 7.58203 7.58325 26.5726 7.58325 49.9987H8.33325ZM49.9999 8.33203V9.08203C72.5976 9.08203 90.9166 27.401 90.9166 49.9987H91.6666H92.4166C92.4166 26.5726 73.426 7.58203 49.9999 7.58203V8.33203ZM91.6666 49.9987H90.9166C90.9166 61.6023 86.0874 72.0767 78.3272 79.524L78.8465 80.0651L79.3658 80.6062C87.4086 72.8878 92.4166 62.0275 92.4166 49.9987H91.6666ZM78.8465 80.0651L78.3272 79.524C70.9747 86.58 60.9944 90.9154 49.9999 90.9154V91.6654V92.4154C61.3968 92.4154 71.7452 87.9195 79.3658 80.6062L78.8465 80.0651ZM62.4999 66.6654V67.4154C70.2218 67.4154 76.6608 72.9149 78.1109 80.2113L78.8465 80.0651L79.5821 79.9189C77.9953 71.9342 70.9513 65.9154 62.4999 65.9154V66.6654ZM49.9999 91.6654V90.9154C39.0054 90.9154 29.0251 86.58 21.6726 79.524L21.1533 80.0651L20.634 80.6062C28.2546 87.9195 38.603 92.4154 49.9999 92.4154V91.6654ZM21.1533 80.0651L21.6726 79.524C13.9124 72.0767 9.08325 61.6023 9.08325 49.9987H8.33325H7.58325C7.58325 62.0275 12.5913 72.8878 20.634 80.6062L21.1533 80.0651ZM37.4999 66.6654V65.9154C29.0485 65.9154 22.0046 71.9342 20.4177 79.9189L21.1533 80.0651L21.8889 80.2113C23.339 72.9149 29.778 67.4154 37.4999 67.4154V66.6654Z" fill="black"/>
</svg>
